<?xml version="1.0" encoding="UTF-8"?>
<svg width="550px" height="550px" viewBox="0 0 550 550" version="1.1" xmlns="http://www.w3.org/2000/svg" xmlns:xlink="http://www.w3.org/1999/xlink">
    <title>Schooltendance Icon@1x</title>
    <g id="Schooltendance-Icon" stroke="none" stroke-width="1" fill="none" fill-rule="evenodd">
        <rect fill="#FFFFFF" x="0" y="0" width="550" height="550"></rect>
        <g id="Group" transform="translate(25, 25)">
            <rect id="Rectangle" stroke="#13747A" stroke-width="9.375" fill="#FFFFFF" x="4.6875" y="4.6875" width="490.625" height="490.625" rx="28.125"></rect>
            <g id="TENDANCE" transform="translate(17.7867, 306.2576)" fill="#13747A" fill-rule="nonzero">
                <path d="M52.8076172,17.7734375 L49.8596191,17.7734375 C49.6032715,16.7480469 49.1404215,15.5303955 48.4710693,14.1204834 C47.8017171,12.7105713 47.0540365,11.3789876 46.2280273,10.1257324 C45.3735352,8.81551107 44.4407145,7.66906738 43.4295654,6.68640137 C42.4184163,5.70373535 41.4428711,5.14119466 40.5029297,4.9987793 C39.6199544,4.88484701 38.5091146,4.79939779 37.1704102,4.74243164 C35.8317057,4.68546549 34.5926921,4.65698242 33.4533691,4.65698242 L30.9753418,4.65698242 L30.9753418,53.1494141 C30.9753418,54.0893555 31.1747233,54.9509684 31.5734863,55.7342529 C31.9722493,56.5175374 32.6700846,57.1228027 33.6669922,57.5500488 C34.1796875,57.7494303 35.2549235,58.0200195 36.8927002,58.3618164 C38.5304769,58.7036133 39.8050944,58.8887533 40.7165527,58.9172363 L40.7165527,61.9506836 L12.0910645,61.9506836 L12.0910645,58.9172363 C12.8885905,58.8602702 14.1062419,58.7463379 15.7440186,58.5754395 C17.3817952,58.404541 18.5139974,58.190918 19.140625,57.9345703 C20.0805664,57.5642904 20.7712809,57.0302327 21.2127686,56.3323975 C21.6542562,55.6345622 21.875,54.7017415 21.875,53.5339355 L21.875,4.65698242 L19.3969727,4.65698242 C18.5139974,4.65698242 17.4173991,4.67834473 16.1071777,4.72106934 C14.7969564,4.76379395 13.5437012,4.85636393 12.3474121,4.9987793 C11.4074707,5.11271159 10.4319255,5.67525228 9.42077637,6.68640137 C8.40962728,7.69755046 7.47680664,8.84399414 6.62231445,10.1257324 C5.76782227,11.4074707 5.01302083,12.7675374 4.35791016,14.2059326 C3.70279948,15.6443278 3.24707031,16.8334961 2.99072266,17.7734375 L0,17.7734375 L0,1.32446289 L52.8076172,1.32446289 L52.8076172,17.7734375 Z" id="Path"></path>
                <path d="M106.017103,44.0917969 L104.863538,61.9506836 L54.5339485,61.9506836 L54.5339485,58.9172363 C55.3884407,58.8602702 56.5277636,58.7392171 57.9519173,58.5540771 C59.3760709,58.3689372 60.3017708,58.1766764 60.7290169,57.9772949 C61.6404752,57.5500488 62.2742236,56.9946289 62.630262,56.3110352 C62.9863004,55.6274414 63.1643196,54.7587077 63.1643196,53.704834 L63.1643196,10.1257324 C63.1643196,9.18579102 63.0076627,8.35266113 62.6943489,7.62634277 C62.3810351,6.90002441 61.7259244,6.30900065 60.7290169,5.85327148 C59.9599739,5.48299154 58.9274625,5.1554362 57.6314827,4.87060547 C56.3355029,4.58577474 55.3029915,4.4148763 54.5339485,4.35791016 L54.5339485,1.32446289 L101.44557,1.32446289 L101.44557,15.9362793 L98.2412239,15.9362793 C97.6715624,13.7715658 96.4396695,11.4715576 94.5455452,9.03625488 C92.6514208,6.60095215 90.8498665,5.26936849 89.1408821,5.04150391 C88.2579068,4.92757161 87.2040331,4.8421224 85.979261,4.78515625 C84.7544889,4.7281901 83.3588183,4.69970703 81.7922493,4.69970703 L72.2646614,4.69970703 L72.2646614,28.7963867 L79.1005989,28.7963867 C81.2937955,28.7963867 82.8959684,28.5898844 83.9071174,28.1768799 C84.9182665,27.7638753 85.8083626,27.0731608 86.5774055,26.1047363 C87.2040331,25.2787272 87.7380908,24.1750081 88.1795784,22.7935791 C88.621066,21.4121501 88.9130175,20.1090495 89.0554329,18.8842773 L92.2597786,18.8842773 L92.2597786,42.5964355 L89.0554329,42.5964355 C88.9415006,41.229248 88.6353076,39.7837321 88.1368538,38.2598877 C87.6384,36.7360433 87.1185839,35.6323242 86.5774055,34.9487305 C85.6944303,33.8378906 84.690402,33.1115723 83.5653206,32.7697754 C82.4402392,32.4279785 80.9519986,32.2570801 79.1005989,32.2570801 L72.2646614,32.2570801 L72.2646614,50.4577637 C72.2646614,52.2806803 72.3928352,53.7190755 72.6491829,54.7729492 C72.9055305,55.8268229 73.4039843,56.624349 74.1445442,57.1655273 C74.8851041,57.7067057 75.8962532,58.0556234 77.1779915,58.2122803 C78.4597298,58.3689372 80.2826464,58.4472656 82.6467415,58.4472656 C83.5866829,58.4472656 84.8256965,58.4472656 86.3637825,58.4472656 C87.9018684,58.4472656 89.1978482,58.3902995 90.2517219,58.2763672 C91.3340787,58.1624349 92.4520393,57.9559326 93.6056038,57.6568604 C94.7591682,57.3577881 95.5780566,56.9519043 96.0622688,56.439209 C97.3724902,55.0720215 98.7467984,52.9998779 100.185194,50.2227783 C101.623589,47.4456787 102.542168,45.4020182 102.940931,44.0917969 L106.017103,44.0917969 Z" id="Path"></path>
                <path d="M171.787624,4.35791016 C170.990098,4.38639323 169.765325,4.61425781 168.113307,5.04150391 C166.461289,5.46875 165.279241,5.91023763 164.567165,6.3659668 C163.541774,7.07804362 162.851059,8.44523112 162.495021,10.4675293 C162.138983,12.4898275 161.960963,15.053304 161.960963,18.157959 L161.960963,62.5488281 L158.243922,62.5488281 L121.500758,12.9455566 L121.500758,44.2199707 C121.500758,47.7233887 121.721502,50.4150391 122.16299,52.2949219 C122.604477,54.1748047 123.28095,55.5135091 124.192409,56.3110352 C124.847519,56.9376628 126.200465,57.5215658 128.251247,58.0627441 C130.302028,58.6039225 131.654974,58.8887533 132.310085,58.9172363 L132.310085,61.9506836 L107.444362,61.9506836 L107.444362,58.9172363 C108.213405,58.8602702 109.509385,58.5825602 111.332301,58.0841064 C113.155218,57.5856527 114.294541,57.1370443 114.75027,56.7382813 C115.747178,55.9407552 116.430771,54.7231038 116.801051,53.0853271 C117.171331,51.4475505 117.356471,48.6490885 117.356471,44.6899414 L117.356471,14.8254395 C117.356471,13.5152181 117.128607,12.2049967 116.672877,10.8947754 C116.217148,9.58455404 115.604762,8.57340495 114.835719,7.86132812 C113.810329,6.92138672 112.421779,6.11673991 110.67007,5.4473877 C108.918361,4.77803548 107.501328,4.4148763 106.418971,4.35791016 L106.418971,1.32446289 L123.722438,1.32446289 L157.816676,47.5524902 L157.816676,18.7133789 C157.816676,15.1814779 157.588812,12.4684652 157.133083,10.5743408 C156.677353,8.68021647 156.022243,7.41984049 155.167751,6.79321289 C154.370224,6.25203451 153.067124,5.72509766 151.258449,5.21240234 C149.449774,4.69970703 148.075465,4.4148763 147.135524,4.35791016 L147.135524,1.32446289 L171.787624,1.32446289 L171.787624,4.35791016 Z" id="Path"></path>
                <path d="M232.132119,32.0007324 C232.132119,37.1561686 231.163694,41.6280111 229.226846,45.4162598 C227.289997,49.2045085 224.769245,52.3091634 221.66459,54.7302246 C218.531452,57.1512858 215.013792,58.9599609 211.111611,60.15625 C207.20943,61.3525391 203.179075,61.9506836 199.020547,61.9506836 L173.898476,61.9506836 L173.898476,58.9172363 C174.724485,58.9172363 175.799721,58.8389079 177.124184,58.682251 C178.448647,58.5255941 179.324502,58.3475749 179.751748,58.1481934 C180.60624,57.7779134 181.225747,57.2296143 181.610268,56.5032959 C181.99479,55.7769775 182.187051,54.901123 182.187051,53.8757324 L182.187051,10.1257324 C182.187051,9.15730794 182.023273,8.28857422 181.695718,7.51953125 C181.368162,6.75048828 180.720172,6.13810221 179.751748,5.68237305 C178.868773,5.25512695 177.91459,4.94181315 176.889199,4.74243164 C175.863808,4.54305013 174.980833,4.4148763 174.240273,4.35791016 L174.240273,1.32446289 L200.729531,1.32446289 C204.375364,1.32446289 207.964232,1.88700358 211.496133,3.01208496 C215.028034,4.13716634 218.104206,5.65388997 220.724648,7.56225586 C224.285032,10.0972493 227.076373,13.4155273 229.098672,17.5170898 C231.12097,21.6186523 232.132119,26.4465332 232.132119,32.0007324 Z M221.66459,31.9580078 C221.66459,27.8849284 221.123411,24.2034912 220.041054,20.9136963 C218.958698,17.6239014 217.377887,14.7542318 215.298623,12.3046875 C213.333291,9.96907552 210.91935,8.13191732 208.056802,6.79321289 C205.194253,5.45450846 202.011269,4.78515625 198.507851,4.78515625 C197.340045,4.78515625 196.022703,4.80651855 194.555825,4.84924316 C193.088947,4.89196777 191.999469,4.92757161 191.287392,4.95605469 L191.287392,51.5686035 C191.287392,54.1605632 192.042194,55.9549967 193.551797,56.9519043 C195.0614,57.9488118 197.38277,58.4472656 200.515908,58.4472656 C204.133258,58.4472656 207.294879,57.8063965 210.000771,56.5246582 C212.706663,55.2429199 214.89986,53.4627279 216.580361,51.184082 C218.346312,48.7915039 219.635171,46.0215251 220.446938,42.8741455 C221.258706,39.726766 221.66459,36.0880534 221.66459,31.9580078 Z" id="Shape"></path>
                <path d="M286.59411,61.9506836 L261.343866,61.9506836 L261.343866,58.9172363 C263.565545,58.774821 265.409824,58.4899902 266.876703,58.0627441 C268.343581,57.635498 269.07702,57.1085612 269.07702,56.4819336 C269.07702,56.2255859 269.048537,55.9122721 268.991571,55.5419922 C268.934605,55.1717122 268.849155,54.8441569 268.735223,54.5593262 L263.693719,40.9729004 L242.459588,40.9729004 C241.662062,42.9667155 241.014072,44.7041829 240.515619,46.1853027 C240.017165,47.6664225 239.568556,49.03361 239.169793,50.2868652 C238.799513,51.5116374 238.543166,52.5085449 238.40075,53.2775879 C238.258335,54.0466309 238.187127,54.6732585 238.187127,55.1574707 C238.187127,56.2967936 239.084344,57.1797689 240.878778,57.8063965 C242.673211,58.4330241 244.695509,58.803304 246.945672,58.9172363 L246.945672,61.9506836 L224.130731,61.9506836 L224.130731,58.9172363 C224.871291,58.8602702 225.796991,58.6964925 226.90783,58.4259033 C228.01867,58.1553141 228.930129,57.7921549 229.642205,57.3364258 C230.781528,56.5673828 231.664504,55.762736 232.291131,54.9224854 C232.917759,54.0822347 233.530145,52.9215495 234.128289,51.4404297 C237.175978,43.8354492 240.536981,35.2905273 244.211297,25.8056641 C247.885614,16.3208008 251.161167,7.87556966 254.037957,0.469970703 L257.455926,0.469970703 L277.664666,52.7648926 C278.091912,53.8757324 278.576125,54.7729492 279.117303,55.456543 C279.658481,56.1401367 280.413283,56.8094889 281.381707,57.4645996 C282.036818,57.8633626 282.89131,58.1980387 283.945184,58.4686279 C284.999058,58.7392171 285.882033,58.8887533 286.59411,58.9172363 L286.59411,61.9506836 Z M262.155633,37.1704102 L252.969842,13.671875 L243.95495,37.1704102 L262.155633,37.1704102 Z" id="Shape"></path>
                <path d="M350.980096,4.35791016 C350.18257,4.38639323 348.957798,4.61425781 347.30578,5.04150391 C345.653761,5.46875 344.471714,5.91023763 343.759637,6.3659668 C342.734246,7.07804362 342.043532,8.44523112 341.687494,10.4675293 C341.331455,12.4898275 341.153436,15.053304 341.153436,18.157959 L341.153436,62.5488281 L337.436395,62.5488281 L300.693231,12.9455566 L300.693231,44.2199707 C300.693231,47.7233887 300.913975,50.4150391 301.355462,52.2949219 C301.79695,54.1748047 302.473423,55.5135091 303.384881,56.3110352 C304.039992,56.9376628 305.392938,57.5215658 307.443719,58.0627441 C309.4945,58.6039225 310.847446,58.8887533 311.502557,58.9172363 L311.502557,61.9506836 L286.636834,61.9506836 L286.636834,58.9172363 C287.405877,58.8602702 288.701857,58.5825602 290.524774,58.0841064 C292.34769,57.5856527 293.487013,57.1370443 293.942743,56.7382813 C294.93965,55.9407552 295.623244,54.7231038 295.993524,53.0853271 C296.363804,51.4475505 296.548944,48.6490885 296.548944,44.6899414 L296.548944,14.8254395 C296.548944,13.5152181 296.321079,12.2049967 295.86535,10.8947754 C295.409621,9.58455404 294.797235,8.57340495 294.028192,7.86132812 C293.002801,6.92138672 291.614251,6.11673991 289.862542,5.4473877 C288.110833,4.77803548 286.6938,4.4148763 285.611444,4.35791016 L285.611444,1.32446289 L302.914911,1.32446289 L337.009149,47.5524902 L337.009149,18.7133789 C337.009149,15.1814779 336.781284,12.4684652 336.325555,10.5743408 C335.869826,8.68021647 335.214715,7.41984049 334.360223,6.79321289 C333.562697,6.25203451 332.259596,5.72509766 330.450921,5.21240234 C328.642246,4.69970703 327.267938,4.4148763 326.327996,4.35791016 L326.327996,1.32446289 L350.980096,1.32446289 L350.980096,4.35791016 Z" id="Path"></path>
                <path d="M379.964728,63.3605957 C376.347378,63.3605957 372.879564,62.6485189 369.561286,61.2243652 C366.243008,59.8002116 363.302131,57.7494303 360.738654,55.0720215 C358.20366,52.3946126 356.181362,49.12618 354.671759,45.2667236 C353.162157,41.4072673 352.407355,37.0564779 352.407355,32.2143555 C352.407355,27.3722331 353.147915,22.9787191 354.629035,19.0338135 C356.110155,15.0889079 358.160936,11.6923014 360.781379,8.84399414 C363.373338,6.02416992 366.435269,3.84521484 369.96717,2.30712891 C373.499071,0.769042969 377.273078,0 381.289191,0 C384.279914,0 386.985806,0.370279948 389.406867,1.11083984 C391.827928,1.85139974 394.135057,2.8910319 396.328254,4.22973633 L398.079963,1.32446289 L401.497931,1.32446289 L401.882453,22.9431152 L398.379035,22.9431152 C397.923306,20.8353678 397.239712,18.5496012 396.328254,16.0858154 C395.416795,13.6220296 394.34868,11.5356445 393.123908,9.82666016 C391.75672,7.8898112 390.133185,6.37308757 388.253302,5.27648926 C386.37342,4.17989095 384.222948,3.6315918 381.801886,3.6315918 C379.039028,3.6315918 376.468431,4.24397786 374.090094,5.46875 C371.711758,6.69352214 369.653856,8.50219727 367.916388,10.8947754 C366.26437,13.2019043 364.96839,16.1356608 364.028449,19.6960449 C363.088507,23.256429 362.618537,27.2298177 362.618537,31.6162109 C362.618537,35.4899089 363.10987,39.0431722 364.092536,42.276001 C365.075202,45.5088298 366.477993,48.3500163 368.30091,50.7995605 C370.123826,53.2206217 372.281419,55.1147461 374.773688,56.4819336 C377.265957,57.8491211 380.050177,58.5327148 383.126349,58.5327148 C385.433478,58.5327148 387.555467,58.1695557 389.492316,57.4432373 C391.429165,56.7169189 393.109666,55.7556152 394.53382,54.5593262 C395.957974,53.306071 397.211229,51.8819173 398.293586,50.2868652 C399.375942,48.6918132 400.258918,46.9543457 400.942511,45.0744629 L404.146857,46.6125488 C401.697313,52.6224772 398.450242,56.9163005 394.405646,59.4940186 C390.36105,62.0717367 385.54741,63.3605957 379.964728,63.3605957 Z" id="Path"></path>
                <path d="M457.783589,44.0917969 L456.630024,61.9506836 L406.300434,61.9506836 L406.300434,58.9172363 C407.154927,58.8602702 408.29425,58.7392171 409.718403,58.5540771 C411.142557,58.3689372 412.068257,58.1766764 412.495503,57.9772949 C413.406961,57.5500488 414.04071,56.9946289 414.396748,56.3110352 C414.752786,55.6274414 414.930806,54.7587077 414.930806,53.704834 L414.930806,10.1257324 C414.930806,9.18579102 414.774149,8.35266113 414.460835,7.62634277 C414.147521,6.90002441 413.49241,6.30900065 412.495503,5.85327148 C411.72646,5.48299154 410.693948,5.1554362 409.397969,4.87060547 C408.101989,4.58577474 407.069477,4.4148763 406.300434,4.35791016 L406.300434,1.32446289 L453.212056,1.32446289 L453.212056,15.9362793 L450.00771,15.9362793 C449.438048,13.7715658 448.206155,11.4715576 446.312031,9.03625488 C444.417907,6.60095215 442.616352,5.26936849 440.907368,5.04150391 C440.024393,4.92757161 438.970519,4.8421224 437.745747,4.78515625 C436.520975,4.7281901 435.125304,4.69970703 433.558735,4.69970703 L424.031147,4.69970703 L424.031147,28.7963867 L430.867085,28.7963867 C433.060281,28.7963867 434.662454,28.5898844 435.673603,28.1768799 C436.684753,27.7638753 437.574849,27.0731608 438.343892,26.1047363 C438.970519,25.2787272 439.504577,24.1750081 439.946064,22.7935791 C440.387552,21.4121501 440.679503,20.1090495 440.821919,18.8842773 L444.026265,18.8842773 L444.026265,42.5964355 L440.821919,42.5964355 C440.707987,41.229248 440.401794,39.7837321 439.90334,38.2598877 C439.404886,36.7360433 438.88507,35.6323242 438.343892,34.9487305 C437.460916,33.8378906 436.456888,33.1115723 435.331807,32.7697754 C434.206725,32.4279785 432.718485,32.2570801 430.867085,32.2570801 L424.031147,32.2570801 L424.031147,50.4577637 C424.031147,52.2806803 424.159321,53.7190755 424.415669,54.7729492 C424.672017,55.8268229 425.17047,56.624349 425.91103,57.1655273 C426.65159,57.7067057 427.662739,58.0556234 428.944477,58.2122803 C430.226216,58.3689372 432.049132,58.4472656 434.413227,58.4472656 C435.353169,58.4472656 436.592183,58.4472656 438.130268,58.4472656 C439.668354,58.4472656 440.964334,58.3902995 442.018208,58.2763672 C443.100565,58.1624349 444.218525,57.9559326 445.37209,57.6568604 C446.525654,57.3577881 447.344543,56.9519043 447.828755,56.439209 C449.138976,55.0720215 450.513284,52.9998779 451.95168,50.2227783 C453.390075,47.4456787 454.308654,45.4020182 454.707417,44.0917969 L457.783589,44.0917969 Z" id="Path"></path>
            </g>
            <g id="School" transform="translate(16.6667, 125.5833)">
                <rect id="Rectangle" stroke="#FF7070" stroke-width="1.04166667" fill="#FF7070" x="0.520833333" y="0.520833333" width="465.625" height="134.375" rx="18.75"></rect>
                <g id="SCHOOL" transform="translate(27.0304, 20.8021)" fill="#FFFFFF" fill-rule="nonzero">
                    <path d="M54.2195638,21.6674805 L43.4366862,21.6674805 C42.4872504,14.4110786 39.0625,10.7828776 33.1624349,10.7828776 C29.3646918,10.7828776 26.4994303,11.6984049 24.5666504,13.5294596 C22.6338704,15.3605143 21.6674805,18.0901421 21.6674805,21.7183431 C21.6674805,24.4310167 22.7355957,26.9741482 24.8718262,29.3477376 L47.861735,55.1859538 C52.1002875,59.9331326 54.2195638,65.0363498 54.2195638,70.4956055 L54.2195638,75.9887695 C54.2195638,81.8549262 52.1002875,86.9327121 47.861735,91.2221273 C43.6231825,95.5115424 38.5199653,97.65625 32.5520833,97.65625 L21.6674805,97.65625 C14.4788954,97.65625 9.07050239,95.8421495 5.44230143,92.2139486 C1.81410048,88.5857476 0,83.1773546 0,75.9887695 L10.8846029,75.9887695 C10.816786,76.7347548 10.7828776,77.3281521 10.7828776,77.7689616 C10.7828776,80.7189941 11.9188097,82.9569499 14.1906738,84.4828288 C16.462538,86.0087077 18.9548069,86.7716471 21.6674805,86.7716471 C25.5330404,86.7716471 28.3135308,85.8391656 30.0089518,83.9742025 C31.7043728,82.1092394 32.5520833,79.3965658 32.5520833,75.8361816 C32.5520833,73.0895996 31.4839681,70.5464681 29.3477376,68.2067871 L6.35782878,42.4702962 C2.11927626,37.7570258 0,32.6538086 0,27.1606445 L0,21.6674805 C0,15.7674154 2.11927626,10.6811523 6.35782878,6.40869141 C10.5963813,2.13623047 15.6995985,0 21.6674805,0 L32.5520833,0 C46.1154514,0 53.3379449,7.22249349 54.2195638,21.6674805 Z" id="Path"></path>
                    <path d="M127.55127,75.9887695 C126.601834,90.4337565 119.37934,97.65625 105.883789,97.65625 L84.1145833,97.65625 C78.1806098,97.65625 73.0858697,95.5284966 68.830363,91.2729899 C64.5748562,87.0174832 62.4471029,81.9227431 62.4471029,75.9887695 L62.4471029,21.6674805 C62.4471029,15.8352322 64.5409478,10.7659234 68.7286377,6.45955404 C72.9163276,2.15318468 78.0449761,0 84.1145833,0 L105.883789,0 C119.514974,0 126.737467,7.22249349 127.55127,21.6674805 L116.666667,21.6674805 C115.818956,14.4788954 112.224664,10.8846029 105.883789,10.8846029 L94.9991862,10.8846029 C92.0152452,10.8846029 89.4551595,11.944241 87.318929,14.0635173 C85.1826986,16.1827935 84.1145833,18.7174479 84.1145833,21.6674805 L84.1145833,75.9887695 C84.1145833,78.9048937 85.1742215,81.431071 87.2934977,83.5673014 C89.412774,85.7035319 91.9813368,86.7716471 94.9991862,86.7716471 L105.883789,86.7716471 C112.258572,86.7716471 115.852865,83.1773546 116.666667,75.9887695 L127.55127,75.9887695 Z" id="Path"></path>
                    <polygon id="Path" points="135.677083 97.65625 135.677083 0 157.344564 0 157.344564 43.4366862 179.11377 43.4366862 179.11377 0 200.78125 0 200.78125 97.65625 179.11377 97.65625 179.11377 54.2195638 157.344564 54.2195638 157.344564 97.65625"></polygon>
                    <path d="M234.220378,0 L255.989583,0 C261.923557,0 267.018297,2.13623047 271.273804,6.40869141 C275.52931,10.6811523 277.657064,15.7674154 277.657064,21.6674805 L277.657064,75.9887695 C277.657064,81.8549262 275.52931,86.9327121 271.273804,91.2221273 C267.018297,95.5115424 261.923557,97.65625 255.989583,97.65625 L234.220378,97.65625 C228.286404,97.65625 223.191664,95.5284966 218.936157,91.2729899 C214.68065,87.0174832 212.552897,81.9227431 212.552897,75.9887695 L212.552897,21.6674805 C212.552897,15.7335069 214.68065,10.6387668 218.936157,6.38326009 C223.191664,2.12775336 228.286404,0 234.220378,0 Z M234.220378,21.6674805 L234.220378,75.9887695 C234.220378,78.9048937 235.280016,81.431071 237.399292,83.5673014 C239.518568,85.7035319 242.087131,86.7716471 245.10498,86.7716471 C248.12283,86.7716471 250.691393,85.7035319 252.810669,83.5673014 C254.929945,81.431071 255.989583,78.9048937 255.989583,75.9887695 L255.989583,21.6674805 C255.989583,18.7174479 254.912991,16.1827935 252.759806,14.0635173 C250.606622,11.944241 248.055013,10.8846029 245.10498,10.8846029 C242.121039,10.8846029 239.560954,11.944241 237.424723,14.0635173 C235.288493,16.1827935 234.220378,18.7174479 234.220378,21.6674805 Z" id="Shape"></path>
                    <path d="M311.096191,0 L332.865397,0 C338.799371,0 343.894111,2.13623047 348.149618,6.40869141 C352.405124,10.6811523 354.532878,15.7674154 354.532878,21.6674805 L354.532878,75.9887695 C354.532878,81.8549262 352.405124,86.9327121 348.149618,91.2221273 C343.894111,95.5115424 338.799371,97.65625 332.865397,97.65625 L311.096191,97.65625 C305.162218,97.65625 300.067478,95.5284966 295.811971,91.2729899 C291.556464,87.0174832 289.428711,81.9227431 289.428711,75.9887695 L289.428711,21.6674805 C289.428711,15.7335069 291.556464,10.6387668 295.811971,6.38326009 C300.067478,2.12775336 305.162218,0 311.096191,0 Z M311.096191,21.6674805 L311.096191,75.9887695 C311.096191,78.9048937 312.15583,81.431071 314.275106,83.5673014 C316.394382,85.7035319 318.962945,86.7716471 321.980794,86.7716471 C324.998644,86.7716471 327.567206,85.7035319 329.686483,83.5673014 C331.805759,81.431071 332.865397,78.9048937 332.865397,75.9887695 L332.865397,21.6674805 C332.865397,18.7174479 331.788805,16.1827935 329.63562,14.0635173 C327.482435,11.944241 324.930827,10.8846029 321.980794,10.8846029 C318.996853,10.8846029 316.436768,11.944241 314.300537,14.0635173 C312.164307,16.1827935 311.096191,18.7174479 311.096191,21.6674805 Z" id="Shape"></path>
                    <polygon id="Path" points="366.304525 97.65625 366.304525 0 387.972005 0 387.972005 86.7716471 420.524089 86.7716471 420.524089 97.65625"></polygon>
                </g>
            </g>
        </g>
    </g>
</svg>