<?xml version="1.0" encoding="UTF-8"?>
<svg viewBox="0 0 2060 220" version="1.1" xmlns="http://www.w3.org/2000/svg" xmlns:xlink="http://www.w3.org/1999/xlink">
    <title>Schooltendance Help Centre@1x</title>
    <g id="Schooltendance-Help-Centre" stroke="none" stroke-width="1" fill="none" fill-rule="evenodd">
        <g id="Group" transform="translate(22, 27)">
            <rect id="Rectangle" stroke="#13747A" stroke-width="9" fill="#FFFFFF" x="4.5" y="4.5" width="1186" height="157" rx="27"></rect>
            <rect id="Rectangle" stroke="#FF7070" fill="#FF7070" x="18.5" y="18.5" width="447" height="129" rx="18"></rect>
            <g id="SCHOOL" transform="translate(43.9492, 37.25)" fill="#FFFFFF" fill-rule="nonzero">
                <path d="M52.0507812,20.8007812 L41.6992188,20.8007812 C40.7877604,13.8346354 37.5,10.3515625 31.8359375,10.3515625 C28.1901042,10.3515625 25.4394531,11.2304688 23.5839844,12.9882813 C21.7285156,14.7460938 20.8007812,17.3665365 20.8007812,20.8496094 C20.8007812,23.453776 21.8261719,25.8951823 23.8769531,28.1738281 L45.9472656,52.9785156 C50.016276,57.5358073 52.0507812,62.4348958 52.0507812,67.6757812 L52.0507812,72.9492188 C52.0507812,78.5807292 50.016276,83.4554036 45.9472656,87.5732422 C41.8782552,91.6910807 36.9791667,93.75 31.25,93.75 L20.8007812,93.75 C13.8997396,93.75 8.70768229,92.0084635 5.22460938,88.5253906 C1.74153646,85.0423177 0,79.8502604 0,72.9492188 L10.4492188,72.9492188 C10.3841146,73.6653646 10.3515625,74.235026 10.3515625,74.6582031 C10.3515625,77.4902344 11.4420573,79.6386719 13.6230469,81.1035156 C15.8040365,82.5683594 18.1966146,83.3007813 20.8007812,83.3007813 C24.5117187,83.3007813 27.1809896,82.405599 28.8085938,80.6152344 C30.4361979,78.8248698 31.25,76.2207031 31.25,72.8027344 C31.25,70.1660156 30.2246094,67.7246094 28.1738281,65.4785156 L6.10351562,40.7714844 C2.03450521,36.2467448 0,31.3476562 0,26.0742188 L0,20.8007812 C0,15.1367187 2.03450521,10.2539062 6.10351562,6.15234375 C10.172526,2.05078125 15.0716146,0 20.8007812,0 L31.25,0 C44.2708333,0 51.2044271,6.93359375 52.0507812,20.8007812 Z" id="Path"></path>
                <path d="M122.449219,72.9492188 C121.53776,86.8164063 114.604167,93.75 101.648438,93.75 L80.75,93.75 C75.0533854,93.75 70.1624349,91.7073568 66.0771484,87.6220703 C61.991862,83.5367839 59.9492188,78.6458333 59.9492188,72.9492188 L59.9492188,20.8007812 C59.9492188,15.2018229 61.9593099,10.3352865 65.9794922,6.20117187 C69.9996745,2.06705729 74.9231771,0 80.75,0 L101.648438,0 C114.734375,0 121.667969,6.93359375 122.449219,20.8007812 L112,20.8007812 C111.186198,13.8997396 107.735677,10.4492187 101.648438,10.4492187 L91.1992188,10.4492187 C88.3346354,10.4492187 85.8769531,11.4664714 83.8261719,13.5009766 C81.7753906,15.5354818 80.75,17.96875 80.75,20.8007812 L80.75,72.9492188 C80.75,75.7486979 81.7672526,78.1738281 83.8017578,80.2246094 C85.836263,82.2753906 88.3020833,83.3007813 91.1992188,83.3007813 L101.648438,83.3007813 C107.768229,83.3007813 111.21875,79.8502604 112,72.9492188 L122.449219,72.9492188 Z" id="Path"></path>
                <polygon id="Path" points="130.25 93.75 130.25 0 151.050781 0 151.050781 41.6992188 171.949219 41.6992188 171.949219 0 192.75 0 192.75 93.75 171.949219 93.75 171.949219 52.0507812 151.050781 52.0507812 151.050781 93.75"></polygon>
                <path d="M224.851562,0 L245.75,0 C251.446615,0 256.337565,2.05078125 260.422852,6.15234375 C264.508138,10.2539062 266.550781,15.1367187 266.550781,20.8007812 L266.550781,72.9492188 C266.550781,78.5807292 264.508138,83.4554036 260.422852,87.5732422 C256.337565,91.6910807 251.446615,93.75 245.75,93.75 L224.851562,93.75 C219.154948,93.75 214.263997,91.7073568 210.178711,87.6220703 C206.093424,83.5367839 204.050781,78.6458333 204.050781,72.9492188 L204.050781,20.8007812 C204.050781,15.1041667 206.093424,10.2132161 210.178711,6.12792969 C214.263997,2.04264323 219.154948,0 224.851562,0 Z M224.851562,20.8007812 L224.851562,72.9492188 C224.851562,75.7486979 225.868815,78.1738281 227.90332,80.2246094 C229.937826,82.2753906 232.403646,83.3007812 235.300781,83.3007812 C238.197917,83.3007812 240.663737,82.2753906 242.698242,80.2246094 C244.732747,78.1738281 245.75,75.7486979 245.75,72.9492188 L245.75,20.8007812 C245.75,17.96875 244.716471,15.5354818 242.649414,13.5009766 C240.582357,11.4664714 238.132812,10.4492188 235.300781,10.4492188 C232.436198,10.4492188 229.978516,11.4664714 227.927734,13.5009766 C225.876953,15.5354818 224.851562,17.96875 224.851562,20.8007812 Z" id="Shape"></path>
                <path d="M298.652344,0 L319.550781,0 C325.247396,0 330.138346,2.05078125 334.223633,6.15234375 C338.308919,10.2539062 340.351562,15.1367187 340.351562,20.8007812 L340.351562,72.9492188 C340.351562,78.5807292 338.308919,83.4554036 334.223633,87.5732422 C330.138346,91.6910807 325.247396,93.75 319.550781,93.75 L298.652344,93.75 C292.955729,93.75 288.064779,91.7073568 283.979492,87.6220703 C279.894206,83.5367839 277.851562,78.6458333 277.851562,72.9492188 L277.851562,20.8007812 C277.851562,15.1041667 279.894206,10.2132161 283.979492,6.12792969 C288.064779,2.04264323 292.955729,0 298.652344,0 Z M298.652344,20.8007812 L298.652344,72.9492188 C298.652344,75.7486979 299.669596,78.1738281 301.704102,80.2246094 C303.738607,82.2753906 306.204427,83.3007812 309.101562,83.3007812 C311.998698,83.3007812 314.464518,82.2753906 316.499023,80.2246094 C318.533529,78.1738281 319.550781,75.7486979 319.550781,72.9492188 L319.550781,20.8007812 C319.550781,17.96875 318.517253,15.5354818 316.450195,13.5009766 C314.383138,11.4664714 311.933594,10.4492188 309.101562,10.4492188 C306.236979,10.4492188 303.779297,11.4664714 301.728516,13.5009766 C299.677734,15.5354818 298.652344,17.96875 298.652344,20.8007812 Z" id="Shape"></path>
                <polygon id="Path" points="351.652344 93.75 351.652344 0 372.453125 0 372.453125 83.3007813 403.703125 83.3007813 403.703125 93.75"></polygon>
            </g>
            <g id="TENDANCE" transform="translate(480.4741, 36.835)" fill="#13747A" fill-rule="nonzero">
                <path d="M80.2675781,27.015625 L75.7866211,27.015625 C75.3969727,25.4570313 74.6934408,23.6062012 73.6760254,21.4631348 C72.65861,19.3200684 71.5221354,17.2960612 70.2666016,15.3911133 C68.9677734,13.3995768 67.5498861,11.6569824 66.0129395,10.1633301 C64.4759928,8.66967773 62.9931641,7.81461589 61.5644531,7.59814453 C60.2223307,7.42496745 58.5338542,7.29508464 56.4990234,7.20849609 C54.4641927,7.12190755 52.5808919,7.07861328 50.8491211,7.07861328 L47.0825195,7.07861328 L47.0825195,80.7871094 C47.0825195,82.2158203 47.3855794,83.525472 47.9916992,84.7160645 C48.597819,85.9066569 49.6585286,86.8266602 51.1738281,87.4760742 C51.953125,87.7791341 53.5874837,88.1904297 56.0769043,88.7099609 C58.5663249,89.2294922 60.5037435,89.5109049 61.8891602,89.5541992 L61.8891602,94.1650391 L18.378418,94.1650391 L18.378418,89.5541992 C19.5906576,89.4676107 21.4414876,89.2944336 23.9309082,89.034668 C26.4203288,88.7749023 28.141276,88.4501953 29.09375,88.0605469 C30.5224609,87.4977214 31.572347,86.6859538 32.2434082,85.6252441 C32.9144694,84.5645345 33.25,83.1466471 33.25,81.371582 L33.25,7.07861328 L29.4833984,7.07861328 C28.141276,7.07861328 26.4744466,7.11108398 24.4829102,7.17602539 C22.4913737,7.2409668 20.5864258,7.38167318 18.7680664,7.59814453 C17.3393555,7.77132161 15.8565267,8.62638346 14.3195801,10.1633301 C12.7826335,11.7002767 11.3647461,13.4428711 10.065918,15.3911133 C8.76708984,17.3393555 7.61979167,19.4066569 6.62402344,21.5930176 C5.62825521,23.7793783 4.93554688,25.5869141 4.54589844,27.015625 L0,27.015625 L0,2.01318359 L80.2675781,2.01318359 L80.2675781,27.015625 Z" id="Path"></path>
                <path d="M161.145996,67.0195312 L159.392578,94.1650391 L82.8916016,94.1650391 L82.8916016,89.5541992 C84.1904297,89.4676107 85.9222005,89.28361 88.0869141,89.0021973 C90.2516276,88.7207845 91.6586914,88.4285482 92.3081055,88.1254883 C93.6935221,87.4760742 94.6568197,86.6318359 95.197998,85.5927734 C95.7391764,84.5537109 96.0097656,83.2332357 96.0097656,81.6313477 L96.0097656,15.3911133 C96.0097656,13.9624023 95.7716471,12.6960449 95.2954102,11.592041 C94.8191732,10.4880371 93.8234049,9.58968099 92.3081055,8.89697266 C91.1391602,8.33414714 89.5697428,7.83626302 87.5998535,7.40332031 C85.6299642,6.9703776 84.0605469,6.71061198 82.8916016,6.62402344 L82.8916016,2.01318359 L154.197266,2.01318359 L154.197266,24.2231445 L149.32666,24.2231445 C148.460775,20.9327799 146.588298,17.4367676 143.709229,13.7351074 C140.83016,10.0334473 138.091797,8.0094401 135.494141,7.66308594 C134.152018,7.48990885 132.55013,7.36002604 130.688477,7.2734375 C128.826823,7.18684896 126.705404,7.14355469 124.324219,7.14355469 L109.842285,7.14355469 L109.842285,43.7705078 L120.23291,43.7705078 C123.566569,43.7705078 126.001872,43.4566243 127.538818,42.8288574 C129.075765,42.2010905 130.428711,41.1512044 131.597656,39.6791992 C132.55013,38.4236654 133.361898,36.7460124 134.032959,34.6462402 C134.70402,32.5464681 135.147786,30.5657552 135.364258,28.7041016 L140.234863,28.7041016 L140.234863,64.746582 L135.364258,64.746582 C135.191081,62.668457 134.725667,60.4712728 133.968018,58.1550293 C133.210368,55.8387858 132.420247,54.1611328 131.597656,53.1220703 C130.255534,51.4335938 128.729411,50.3295898 127.019287,49.8100586 C125.309163,49.2905273 123.047038,49.0307617 120.23291,49.0307617 L109.842285,49.0307617 L109.842285,76.6958008 C109.842285,79.4666341 110.037109,81.6529948 110.426758,83.2548828 C110.816406,84.8567708 111.574056,86.0690104 112.699707,86.8916016 C113.825358,87.7141927 115.362305,88.2445475 117.310547,88.482666 C119.258789,88.7207845 122.029622,88.8398437 125.623047,88.8398437 C127.051758,88.8398437 128.935059,88.8398437 131.272949,88.8398437 C133.61084,88.8398437 135.580729,88.7532552 137.182617,88.5800781 C138.827799,88.406901 140.5271,88.0930176 142.280518,87.6384277 C144.033936,87.1838379 145.278646,86.5668945 146.014648,85.7875977 C148.006185,83.7094727 150.095133,80.5598145 152.281494,76.338623 C154.467855,72.1174316 155.864095,69.0110677 156.470215,67.0195312 L161.145996,67.0195312 Z" id="Path"></path>
                <path d="M261.117188,6.62402344 C259.904948,6.66731771 258.043294,7.01367188 255.532227,7.66308594 C253.021159,8.3125 251.224447,8.9835612 250.14209,9.67626953 C248.583496,10.7586263 247.53361,12.8367513 246.992432,15.9106445 C246.451253,18.9845378 246.180664,22.8810221 246.180664,27.6000977 L246.180664,95.0742188 L240.530762,95.0742188 L184.681152,19.6772461 L184.681152,67.2143555 C184.681152,72.5395508 185.016683,76.6308594 185.687744,79.4882813 C186.358805,82.3457031 187.387044,84.3805339 188.772461,85.5927734 C189.768229,86.5452474 191.824707,87.4327799 194.941895,88.2553711 C198.059082,89.0779622 200.11556,89.5109049 201.111328,89.5541992 L201.111328,94.1650391 L163.31543,94.1650391 L163.31543,89.5541992 C164.484375,89.4676107 166.454264,89.0454915 169.225098,88.2878418 C171.995931,87.5301921 173.727702,86.8483073 174.42041,86.2421875 C175.93571,85.0299479 176.974772,83.1791178 177.537598,80.6896973 C178.100423,78.2002767 178.381836,73.9466146 178.381836,67.9287109 L178.381836,22.534668 C178.381836,20.5431315 178.035482,18.5515951 177.342773,16.5600586 C176.650065,14.5685221 175.719238,13.0315755 174.550293,11.9492187 C172.991699,10.5205078 170.881104,9.29744466 168.218506,8.2800293 C165.555908,7.26261393 163.402018,6.71061198 161.756836,6.62402344 L161.756836,2.01318359 L188.058105,2.01318359 L239.881348,72.2797852 L239.881348,28.4443359 C239.881348,23.0758464 239.534993,18.9520671 238.842285,16.072998 C238.149577,13.193929 237.153809,11.2781576 235.85498,10.3256836 C234.642741,9.50309245 232.662028,8.70214844 229.912842,7.92285156 C227.163656,7.14355469 225.074707,6.71061198 223.645996,6.62402344 L223.645996,2.01318359 L261.117188,2.01318359 L261.117188,6.62402344 Z" id="Path"></path>
                <path d="M352.84082,48.6411133 C352.84082,56.4773763 351.368815,63.2745768 348.424805,69.0327148 C345.480794,74.7908529 341.649251,79.5099284 336.930176,83.1899414 C332.167806,86.8699544 326.820964,89.6191406 320.889648,91.4375 C314.958333,93.2558594 308.832194,94.1650391 302.51123,94.1650391 L264.325684,94.1650391 L264.325684,89.5541992 C265.581217,89.5541992 267.215576,89.43514 269.22876,89.1970215 C271.241943,88.958903 272.573242,88.6883138 273.222656,88.3852539 C274.521484,87.8224284 275.463135,86.9890137 276.047607,85.8850098 C276.63208,84.7810059 276.924316,83.449707 276.924316,81.8911133 L276.924316,15.3911133 C276.924316,13.9191081 276.675374,12.5986328 276.17749,11.4296875 C275.679606,10.2607422 274.694661,9.32991536 273.222656,8.63720703 C271.880534,7.98779297 270.430176,7.51155599 268.871582,7.20849609 C267.312988,6.9054362 265.970866,6.71061198 264.845215,6.62402344 L264.845215,2.01318359 L305.108887,2.01318359 C310.650553,2.01318359 316.105632,2.86824544 321.474121,4.57836914 C326.842611,6.28849284 331.518392,8.59391276 335.501465,11.4946289 C340.913249,15.347819 345.156087,20.3916016 348.22998,26.6259766 C351.303874,32.8603516 352.84082,40.1987305 352.84082,48.6411133 Z M336.930176,48.5761719 C336.930176,42.3850911 336.107585,36.7893066 334.462402,31.7888184 C332.81722,26.7883301 330.414388,22.4264323 327.253906,18.703125 C324.266602,15.1529948 320.597412,12.3605143 316.246338,10.3256836 C311.895264,8.29085286 307.057129,7.2734375 301.731934,7.2734375 C299.956868,7.2734375 297.954508,7.3059082 295.724854,7.37084961 C293.495199,7.43579102 291.839193,7.48990885 290.756836,7.53320312 L290.756836,78.3842773 C290.756836,82.324056 291.904134,85.0515951 294.19873,86.5668945 C296.493327,88.082194 300.02181,88.8398438 304.78418,88.8398438 C310.282552,88.8398438 315.088216,87.8657227 319.201172,85.9174805 C323.314128,83.9692383 326.647786,81.2633464 329.202148,77.7998047 C331.886393,74.1630859 333.845459,69.9527181 335.079346,65.1687012 C336.313232,60.3846842 336.930176,54.8538411 336.930176,48.5761719 Z" id="Shape"></path>
                <path d="M435.623047,94.1650391 L397.242676,94.1650391 L397.242676,89.5541992 C400.619629,89.3377279 403.422933,88.9047852 405.652588,88.2553711 C407.882243,87.605957 408.99707,86.805013 408.99707,85.8525391 C408.99707,85.4628906 408.953776,84.9866536 408.867188,84.4238281 C408.780599,83.8610026 408.650716,83.3631185 408.477539,82.9301758 L400.814453,62.2788086 L368.538574,62.2788086 C367.326335,65.3094076 366.34139,67.9503581 365.58374,70.2016602 C364.82609,72.4529622 364.144206,74.5310872 363.538086,76.4360352 C362.97526,78.2976888 362.585612,79.8129883 362.369141,80.9819336 C362.152669,82.1508789 362.044434,83.1033529 362.044434,83.8393555 C362.044434,85.5711263 363.408203,86.9132487 366.135742,87.8657227 C368.863281,88.8181966 371.937174,89.3810221 375.357422,89.5541992 L375.357422,94.1650391 L340.678711,94.1650391 L340.678711,89.5541992 C341.804362,89.4676107 343.211426,89.2186686 344.899902,88.807373 C346.588379,88.3960775 347.973796,87.8440755 349.056152,87.1513672 C350.787923,85.9824219 352.130046,84.7593587 353.08252,83.4821777 C354.034993,82.2049967 354.96582,80.4407552 355.875,78.1894531 C360.507487,66.6298828 365.616211,53.6416016 371.201172,39.2246094 C376.786133,24.8076172 381.764974,11.9708659 386.137695,0.714355469 L391.333008,0.714355469 L422.050293,80.2026367 C422.699707,81.8911133 423.43571,83.2548828 424.258301,84.2939453 C425.080892,85.3330078 426.22819,86.3504232 427.700195,87.3461914 C428.695964,87.9523112 429.994792,88.4610189 431.59668,88.8723145 C433.198568,89.28361 434.54069,89.5109049 435.623047,89.5541992 L435.623047,94.1650391 Z M398.476562,56.4990234 L384.51416,20.78125 L370.811523,56.4990234 L398.476562,56.4990234 Z" id="Shape"></path>
                <path d="M533.489746,6.62402344 C532.277507,6.66731771 530.415853,7.01367188 527.904785,7.66308594 C525.393717,8.3125 523.597005,8.9835612 522.514648,9.67626953 C520.956055,10.7586263 519.906169,12.8367513 519.36499,15.9106445 C518.823812,18.9845378 518.553223,22.8810221 518.553223,27.6000977 L518.553223,95.0742188 L512.90332,95.0742188 L457.053711,19.6772461 L457.053711,67.2143555 C457.053711,72.5395508 457.389242,76.6308594 458.060303,79.4882813 C458.731364,82.3457031 459.759603,84.3805339 461.14502,85.5927734 C462.140788,86.5452474 464.197266,87.4327799 467.314453,88.2553711 C470.431641,89.0779622 472.488118,89.5109049 473.483887,89.5541992 L473.483887,94.1650391 L435.687988,94.1650391 L435.687988,89.5541992 C436.856934,89.4676107 438.826823,89.0454915 441.597656,88.2878418 C444.36849,87.5301921 446.10026,86.8483073 446.792969,86.2421875 C448.308268,85.0299479 449.347331,83.1791178 449.910156,80.6896973 C450.472982,78.2002767 450.754395,73.9466146 450.754395,67.9287109 L450.754395,22.534668 C450.754395,20.5431315 450.40804,18.5515951 449.715332,16.5600586 C449.022624,14.5685221 448.091797,13.0315755 446.922852,11.9492187 C445.364258,10.5205078 443.253662,9.29744466 440.591064,8.2800293 C437.928467,7.26261393 435.774577,6.71061198 434.129395,6.62402344 L434.129395,2.01318359 L460.430664,2.01318359 L512.253906,72.2797852 L512.253906,28.4443359 C512.253906,23.0758464 511.907552,18.9520671 511.214844,16.072998 C510.522135,13.193929 509.526367,11.2781576 508.227539,10.3256836 C507.015299,9.50309245 505.034587,8.70214844 502.2854,7.92285156 C499.536214,7.14355469 497.447266,6.71061198 496.018555,6.62402344 L496.018555,2.01318359 L533.489746,2.01318359 L533.489746,6.62402344 Z" id="Path"></path>
                <path d="M577.546387,96.3081055 C572.048014,96.3081055 566.776937,95.2257487 561.733154,93.0610352 C556.689372,90.8963216 552.219238,87.7791341 548.322754,83.7094727 C544.469564,79.6398112 541.395671,74.6717936 539.101074,68.8054199 C536.806478,62.9390462 535.65918,56.3258464 535.65918,48.9658203 C535.65918,41.6057943 536.784831,34.927653 539.036133,28.9313965 C541.287435,22.93514 544.404622,17.7722982 548.387695,13.4428711 C552.327474,9.15673828 556.981608,5.84472656 562.350098,3.50683594 C567.718587,1.16894531 573.455078,0 579.55957,0 C584.105469,0 588.218424,0.562825521 591.898438,1.68847656 C595.578451,2.8141276 599.085286,4.39436849 602.418945,6.42919922 L605.081543,2.01318359 L610.276855,2.01318359 L610.861328,34.8735352 L605.536133,34.8735352 C604.843424,31.6697591 603.804362,28.1953939 602.418945,24.4504395 C601.033529,20.705485 599.409993,17.5341797 597.54834,14.9365234 C595.470215,11.992513 593.002441,9.6870931 590.14502,8.02026367 C587.287598,6.35343424 584.01888,5.52001953 580.338867,5.52001953 C576.139323,5.52001953 572.232015,6.45084635 568.616943,8.3125 C565.001872,10.1741536 561.873861,12.9233398 559.23291,16.5600586 C556.721842,20.0668945 554.751953,24.5262044 553.323242,29.9379883 C551.894531,35.3497721 551.180176,41.3893229 551.180176,48.0566406 C551.180176,53.9446615 551.927002,59.3456217 553.420654,64.2595215 C554.914307,69.1734212 557.046549,73.4920247 559.817383,77.215332 C562.588216,80.8953451 565.867757,83.7744141 569.656006,85.8525391 C573.444255,87.9306641 577.67627,88.9697266 582.352051,88.9697266 C585.858887,88.9697266 589.08431,88.4177246 592.02832,87.3137207 C594.972331,86.2097168 597.526693,84.7485352 599.691406,82.9301758 C601.85612,81.0252279 603.761068,78.8605143 605.40625,76.4360352 C607.051432,74.011556 608.393555,71.3706055 609.432617,68.5131836 L614.303223,70.8510742 C610.579915,79.9861654 605.644368,86.5127767 599.496582,90.4309082 C593.348796,94.3490397 586.032064,96.3081055 577.546387,96.3081055 Z" id="Path"></path>
                <path d="M695.831055,67.0195312 L694.077637,94.1650391 L617.57666,94.1650391 L617.57666,89.5541992 C618.875488,89.4676107 620.607259,89.28361 622.771973,89.0021973 C624.936686,88.7207845 626.34375,88.4285482 626.993164,88.1254883 C628.378581,87.4760742 629.341878,86.6318359 629.883057,85.5927734 C630.424235,84.5537109 630.694824,83.2332357 630.694824,81.6313477 L630.694824,15.3911133 C630.694824,13.9624023 630.456706,12.6960449 629.980469,11.592041 C629.504232,10.4880371 628.508464,9.58968099 626.993164,8.89697266 C625.824219,8.33414714 624.254801,7.83626302 622.284912,7.40332031 C620.315023,6.9703776 618.745605,6.71061198 617.57666,6.62402344 L617.57666,2.01318359 L688.882324,2.01318359 L688.882324,24.2231445 L684.011719,24.2231445 C683.145833,20.9327799 681.273356,17.4367676 678.394287,13.7351074 C675.515218,10.0334473 672.776855,8.0094401 670.179199,7.66308594 C668.837077,7.48990885 667.235189,7.36002604 665.373535,7.2734375 C663.511882,7.18684896 661.390462,7.14355469 659.009277,7.14355469 L644.527344,7.14355469 L644.527344,43.7705078 L654.917969,43.7705078 C658.251628,43.7705078 660.68693,43.4566243 662.223877,42.8288574 C663.760824,42.2010905 665.11377,41.1512044 666.282715,39.6791992 C667.235189,38.4236654 668.046956,36.7460124 668.718018,34.6462402 C669.389079,32.5464681 669.832845,30.5657552 670.049316,28.7041016 L674.919922,28.7041016 L674.919922,64.746582 L670.049316,64.746582 C669.876139,62.668457 669.410726,60.4712728 668.653076,58.1550293 C667.895426,55.8387858 667.105306,54.1611328 666.282715,53.1220703 C664.940592,51.4335938 663.414469,50.3295898 661.704346,49.8100586 C659.994222,49.2905273 657.732096,49.0307617 654.917969,49.0307617 L644.527344,49.0307617 L644.527344,76.6958008 C644.527344,79.4666341 644.722168,81.6529948 645.111816,83.2548828 C645.501465,84.8567708 646.259115,86.0690104 647.384766,86.8916016 C648.510417,87.7141927 650.047363,88.2445475 651.995605,88.482666 C653.943848,88.7207845 656.714681,88.8398437 660.308105,88.8398437 C661.736816,88.8398437 663.620117,88.8398437 665.958008,88.8398437 C668.295898,88.8398437 670.265788,88.7532552 671.867676,88.5800781 C673.512858,88.406901 675.212158,88.0930176 676.965576,87.6384277 C678.718994,87.1838379 679.963704,86.5668945 680.699707,85.7875977 C682.691243,83.7094727 684.780192,80.5598145 686.966553,76.338623 C689.152913,72.1174316 690.549154,69.0110677 691.155273,67.0195312 L695.831055,67.0195312 Z" id="Path"></path>
            </g>
        </g>
        <g id="HELP-CENTRE" transform="translate(1259.3392, 36.092)" fill="#FF7070" fill-rule="nonzero">
            <polygon id="Path" points="0 147.908 0 1.236 21.012 1.236 21.012 64.066 46.968 64.066 46.968 1.236 67.98 1.236 67.98 147.908 46.968 147.908 46.968 82.606 21.012 82.606 21.012 147.908"></polygon>
            <polygon id="Path" points="81.5605113 147.908 81.5605113 1.236 144.184511 1.236 144.184511 21.012 102.572511 21.012 102.572511 64.066 138.828511 64.066 138.828511 83.842 102.572511 83.842 102.572511 126.896 144.184511 126.896 144.184511 147.908"></polygon>
            <polygon id="Path" points="151.585023 147.908 151.585023 1.236 172.597023 1.236 172.597023 126.896 214.209023 126.896 214.209023 147.908"></polygon>
            <path d="M221.609534,147.908 L221.609534,1.236 L253.127534,1.236 C258.895534,1.236 263.976867,1.99133333 268.371534,3.502 C272.766201,5.01266667 276.748867,7.69066667 280.319534,11.536 C283.890201,15.3813333 286.362201,19.879 287.735534,25.029 C289.108867,30.179 289.795534,37.1486667 289.795534,45.938 C289.795534,52.53 289.417867,58.092 288.662534,62.624 C287.907201,67.156 286.293534,71.4133333 283.821534,75.396 C280.937534,80.2026667 277.092201,83.945 272.285534,86.623 C267.478867,89.301 261.161534,90.64 253.333534,90.64 L242.621534,90.64 L242.621534,147.908 L221.609534,147.908 Z M242.621534,21.012 L242.621534,70.864 L252.715534,70.864 C256.972867,70.864 260.268867,70.246 262.603534,69.01 C264.938201,67.774 266.654867,66.0573333 267.753534,63.86 C268.852201,61.8 269.504534,59.2593333 269.710534,56.238 C269.916534,53.2166667 270.019534,49.852 270.019534,46.144 C270.019534,42.7106667 269.950867,39.449 269.813534,36.359 C269.676201,33.269 269.058201,30.5566667 267.959534,28.222 C266.860867,25.8873333 265.212867,24.102 263.015534,22.866 C260.818201,21.63 257.659534,21.012 253.539534,21.012 L242.621534,21.012 Z" id="Shape"></path>
            <path d="M398.120556,106.09 L398.120556,115.154 C398.120556,119.686 397.262223,123.977667 395.545556,128.029 C393.82889,132.080333 391.45989,135.685333 388.438556,138.844 C385.417223,142.002667 381.88089,144.509 377.829556,146.363 C373.778223,148.217 369.41789,149.144 364.748556,149.144 C360.76589,149.144 356.714556,148.594667 352.594556,147.496 C348.474556,146.397333 344.766556,144.474667 341.470556,141.728 C338.174556,138.981333 335.462223,135.445 333.333556,131.119 C331.20489,126.793 330.140556,121.265333 330.140556,114.536 L330.140556,33.784 C330.140556,28.9773333 330.964556,24.514 332.612556,20.394 C334.260556,16.274 336.595223,12.7033333 339.616556,9.682 C342.63789,6.66066667 346.24289,4.29166667 350.431556,2.575 C354.620223,0.858333333 359.255223,0 364.336556,0 C374.224556,0 382.258556,3.22733333 388.438556,9.682 C391.45989,12.8406667 393.82889,16.583 395.545556,20.909 C397.262223,25.235 398.120556,29.9386667 398.120556,35.02 L398.120556,43.26 L377.108556,43.26 L377.108556,36.256 C377.108556,32.136 375.941223,28.5653333 373.606556,25.544 C371.27189,22.5226667 368.113223,21.012 364.130556,21.012 C358.91189,21.012 355.444223,22.6256667 353.727556,25.853 C352.01089,29.0803333 351.152556,33.166 351.152556,38.11 L351.152556,113.094 C351.152556,117.351333 352.079556,120.922 353.933556,123.806 C355.787556,126.69 359.11789,128.132 363.924556,128.132 C365.29789,128.132 366.774223,127.891667 368.353556,127.411 C369.93289,126.930333 371.409223,126.140667 372.782556,125.042 C374.018556,123.943333 375.048556,122.432667 375.872556,120.51 C376.696556,118.587333 377.108556,116.184 377.108556,113.3 L377.108556,106.09 L398.120556,106.09 Z" id="Path"></path>
            <polygon id="Path" points="409.023068 147.908 409.023068 1.236 471.647068 1.236 471.647068 21.012 430.035068 21.012 430.035068 64.066 466.291068 64.066 466.291068 83.842 430.035068 83.842 430.035068 126.896 471.647068 126.896 471.647068 147.908"></polygon>
            <polygon id="Path" points="478.223579 147.908 478.223579 1.236 498.411579 1.236 530.135579 89.61 530.547579 89.61 530.547579 1.236 551.559579 1.236 551.559579 147.908 531.783579 147.908 499.647579 59.74 499.235579 59.74 499.235579 147.908"></polygon>
            <polygon id="Path" points="578.11809 147.908 578.11809 21.012 553.81009 21.012 553.81009 1.236 623.43809 1.236 623.43809 21.012 599.13009 21.012 599.13009 147.908"></polygon>
            <path d="M647.524602,21.012 L647.524602,66.744 L659.472602,66.744 C663.180602,66.744 666.133268,66.229 668.330602,65.199 C670.527935,64.169 672.244602,62.6926667 673.480602,60.77 C674.579268,58.8473333 675.334602,56.4783333 675.746602,53.663 C676.158602,50.8476667 676.364602,47.586 676.364602,43.878 C676.364602,40.17 676.158602,36.9083333 675.746602,34.093 C675.334602,31.2776667 674.510602,28.84 673.274602,26.78 C670.665268,22.9346667 665.721268,21.012 658.442602,21.012 L647.524602,21.012 Z M626.512602,147.908 L626.512602,1.236 L660.296602,1.236 C685.016602,1.236 697.376602,15.5873333 697.376602,44.29 C697.376602,52.942 696.037602,60.2893333 693.359602,66.332 C690.681602,72.3746667 685.977935,77.25 679.248602,80.958 L701.908602,147.908 L679.660602,147.908 L660.090602,85.284 L647.524602,85.284 L647.524602,147.908 L626.512602,147.908 Z" id="Shape"></path>
            <polygon id="Path" points="708.073113 147.908 708.073113 1.236 770.697113 1.236 770.697113 21.012 729.085113 21.012 729.085113 64.066 765.341113 64.066 765.341113 83.842 729.085113 83.842 729.085113 126.896 770.697113 126.896 770.697113 147.908"></polygon>
        </g>
    </g>
</svg>