<?xml version="1.0" encoding="UTF-8"?>
<svg viewBox="0 0 2179 220" version="1.1" xmlns="http://www.w3.org/2000/svg" xmlns:xlink="http://www.w3.org/1999/xlink">
    <title>Schooltendance Help Centre@1x</title>
    <g id="Schooltendance-Help-Centre" stroke="none" stroke-width="1" fill="none" fill-rule="evenodd">
        <g id="Group" transform="translate(22, 27)">
            <rect id="Rectangle" stroke="#13747A" stroke-width="9" fill="#FFFFFF" x="4.5" y="4.5" width="1186" height="157" rx="27"></rect>
            <rect id="Rectangle" stroke="#FF7070" fill="#FF7070" x="18.5" y="18.5" width="447" height="129" rx="18"></rect>
            <g id="SCHOOL" transform="translate(43.9492, 37.25)" fill="#FFFFFF" fill-rule="nonzero">
                <path d="M52.0507812,20.8007812 L41.6992188,20.8007812 C40.7877604,13.8346354 37.5,10.3515625 31.8359375,10.3515625 C28.1901042,10.3515625 25.4394531,11.2304688 23.5839844,12.9882813 C21.7285156,14.7460938 20.8007812,17.3665365 20.8007812,20.8496094 C20.8007812,23.453776 21.8261719,25.8951823 23.8769531,28.1738281 L45.9472656,52.9785156 C50.016276,57.5358073 52.0507812,62.4348958 52.0507812,67.6757812 L52.0507812,72.9492188 C52.0507812,78.5807292 50.016276,83.4554036 45.9472656,87.5732422 C41.8782552,91.6910807 36.9791667,93.75 31.25,93.75 L20.8007812,93.75 C13.8997396,93.75 8.70768229,92.0084635 5.22460938,88.5253906 C1.74153646,85.0423177 0,79.8502604 0,72.9492188 L10.4492188,72.9492188 C10.3841146,73.6653646 10.3515625,74.235026 10.3515625,74.6582031 C10.3515625,77.4902344 11.4420573,79.6386719 13.6230469,81.1035156 C15.8040365,82.5683594 18.1966146,83.3007813 20.8007812,83.3007813 C24.5117187,83.3007813 27.1809896,82.405599 28.8085938,80.6152344 C30.4361979,78.8248698 31.25,76.2207031 31.25,72.8027344 C31.25,70.1660156 30.2246094,67.7246094 28.1738281,65.4785156 L6.10351562,40.7714844 C2.03450521,36.2467448 0,31.3476562 0,26.0742188 L0,20.8007812 C0,15.1367187 2.03450521,10.2539062 6.10351562,6.15234375 C10.172526,2.05078125 15.0716146,0 20.8007812,0 L31.25,0 C44.2708333,0 51.2044271,6.93359375 52.0507812,20.8007812 Z" id="Path"></path>
                <path d="M122.449219,72.9492188 C121.53776,86.8164063 114.604167,93.75 101.648438,93.75 L80.75,93.75 C75.0533854,93.75 70.1624349,91.7073568 66.0771484,87.6220703 C61.991862,83.5367839 59.9492188,78.6458333 59.9492188,72.9492188 L59.9492188,20.8007812 C59.9492188,15.2018229 61.9593099,10.3352865 65.9794922,6.20117187 C69.9996745,2.06705729 74.9231771,0 80.75,0 L101.648438,0 C114.734375,0 121.667969,6.93359375 122.449219,20.8007812 L112,20.8007812 C111.186198,13.8997396 107.735677,10.4492187 101.648438,10.4492187 L91.1992188,10.4492187 C88.3346354,10.4492187 85.8769531,11.4664714 83.8261719,13.5009766 C81.7753906,15.5354818 80.75,17.96875 80.75,20.8007812 L80.75,72.9492188 C80.75,75.7486979 81.7672526,78.1738281 83.8017578,80.2246094 C85.836263,82.2753906 88.3020833,83.3007813 91.1992188,83.3007813 L101.648438,83.3007813 C107.768229,83.3007813 111.21875,79.8502604 112,72.9492188 L122.449219,72.9492188 Z" id="Path"></path>
                <polygon id="Path" points="130.25 93.75 130.25 0 151.050781 0 151.050781 41.6992188 171.949219 41.6992188 171.949219 0 192.75 0 192.75 93.75 171.949219 93.75 171.949219 52.0507812 151.050781 52.0507812 151.050781 93.75"></polygon>
                <path d="M224.851562,0 L245.75,0 C251.446615,0 256.337565,2.05078125 260.422852,6.15234375 C264.508138,10.2539062 266.550781,15.1367187 266.550781,20.8007812 L266.550781,72.9492188 C266.550781,78.5807292 264.508138,83.4554036 260.422852,87.5732422 C256.337565,91.6910807 251.446615,93.75 245.75,93.75 L224.851562,93.75 C219.154948,93.75 214.263997,91.7073568 210.178711,87.6220703 C206.093424,83.5367839 204.050781,78.6458333 204.050781,72.9492188 L204.050781,20.8007812 C204.050781,15.1041667 206.093424,10.2132161 210.178711,6.12792969 C214.263997,2.04264323 219.154948,0 224.851562,0 Z M224.851562,20.8007812 L224.851562,72.9492188 C224.851562,75.7486979 225.868815,78.1738281 227.90332,80.2246094 C229.937826,82.2753906 232.403646,83.3007812 235.300781,83.3007812 C238.197917,83.3007812 240.663737,82.2753906 242.698242,80.2246094 C244.732747,78.1738281 245.75,75.7486979 245.75,72.9492188 L245.75,20.8007812 C245.75,17.96875 244.716471,15.5354818 242.649414,13.5009766 C240.582357,11.4664714 238.132812,10.4492188 235.300781,10.4492188 C232.436198,10.4492188 229.978516,11.4664714 227.927734,13.5009766 C225.876953,15.5354818 224.851562,17.96875 224.851562,20.8007812 Z" id="Shape"></path>
                <path d="M298.652344,0 L319.550781,0 C325.247396,0 330.138346,2.05078125 334.223633,6.15234375 C338.308919,10.2539062 340.351562,15.1367187 340.351562,20.8007812 L340.351562,72.9492188 C340.351562,78.5807292 338.308919,83.4554036 334.223633,87.5732422 C330.138346,91.6910807 325.247396,93.75 319.550781,93.75 L298.652344,93.75 C292.955729,93.75 288.064779,91.7073568 283.979492,87.6220703 C279.894206,83.5367839 277.851562,78.6458333 277.851562,72.9492188 L277.851562,20.8007812 C277.851562,15.1041667 279.894206,10.2132161 283.979492,6.12792969 C288.064779,2.04264323 292.955729,0 298.652344,0 Z M298.652344,20.8007812 L298.652344,72.9492188 C298.652344,75.7486979 299.669596,78.1738281 301.704102,80.2246094 C303.738607,82.2753906 306.204427,83.3007812 309.101562,83.3007812 C311.998698,83.3007812 314.464518,82.2753906 316.499023,80.2246094 C318.533529,78.1738281 319.550781,75.7486979 319.550781,72.9492188 L319.550781,20.8007812 C319.550781,17.96875 318.517253,15.5354818 316.450195,13.5009766 C314.383138,11.4664714 311.933594,10.4492188 309.101562,10.4492188 C306.236979,10.4492188 303.779297,11.4664714 301.728516,13.5009766 C299.677734,15.5354818 298.652344,17.96875 298.652344,20.8007812 Z" id="Shape"></path>
                <polygon id="Path" points="351.652344 93.75 351.652344 0 372.453125 0 372.453125 83.3007813 403.703125 83.3007813 403.703125 93.75"></polygon>
            </g>
            <g id="TENDANCE" transform="translate(480.4741, 36.835)" fill="#13747A" fill-rule="nonzero">
                <path d="M80.2675781,27.015625 L75.7866211,27.015625 C75.3969727,25.4570313 74.6934408,23.6062012 73.6760254,21.4631348 C72.65861,19.3200684 71.5221354,17.2960612 70.2666016,15.3911133 C68.9677734,13.3995768 67.5498861,11.6569824 66.0129395,10.1633301 C64.4759928,8.66967773 62.9931641,7.81461589 61.5644531,7.59814453 C60.2223307,7.42496745 58.5338542,7.29508464 56.4990234,7.20849609 C54.4641927,7.12190755 52.5808919,7.07861328 50.8491211,7.07861328 L47.0825195,7.07861328 L47.0825195,80.7871094 C47.0825195,82.2158203 47.3855794,83.525472 47.9916992,84.7160645 C48.597819,85.9066569 49.6585286,86.8266602 51.1738281,87.4760742 C51.953125,87.7791341 53.5874837,88.1904297 56.0769043,88.7099609 C58.5663249,89.2294922 60.5037435,89.5109049 61.8891602,89.5541992 L61.8891602,94.1650391 L18.378418,94.1650391 L18.378418,89.5541992 C19.5906576,89.4676107 21.4414876,89.2944336 23.9309082,89.034668 C26.4203288,88.7749023 28.141276,88.4501953 29.09375,88.0605469 C30.5224609,87.4977214 31.572347,86.6859538 32.2434082,85.6252441 C32.9144694,84.5645345 33.25,83.1466471 33.25,81.371582 L33.25,7.07861328 L29.4833984,7.07861328 C28.141276,7.07861328 26.4744466,7.11108398 24.4829102,7.17602539 C22.4913737,7.2409668 20.5864258,7.38167318 18.7680664,7.59814453 C17.3393555,7.77132161 15.8565267,8.62638346 14.3195801,10.1633301 C12.7826335,11.7002767 11.3647461,13.4428711 10.065918,15.3911133 C8.76708984,17.3393555 7.61979167,19.4066569 6.62402344,21.5930176 C5.62825521,23.7793783 4.93554688,25.5869141 4.54589844,27.015625 L0,27.015625 L0,2.01318359 L80.2675781,2.01318359 L80.2675781,27.015625 Z" id="Path"></path>
                <path d="M161.145996,67.0195312 L159.392578,94.1650391 L82.8916016,94.1650391 L82.8916016,89.5541992 C84.1904297,89.4676107 85.9222005,89.28361 88.0869141,89.0021973 C90.2516276,88.7207845 91.6586914,88.4285482 92.3081055,88.1254883 C93.6935221,87.4760742 94.6568197,86.6318359 95.197998,85.5927734 C95.7391764,84.5537109 96.0097656,83.2332357 96.0097656,81.6313477 L96.0097656,15.3911133 C96.0097656,13.9624023 95.7716471,12.6960449 95.2954102,11.592041 C94.8191732,10.4880371 93.8234049,9.58968099 92.3081055,8.89697266 C91.1391602,8.33414714 89.5697428,7.83626302 87.5998535,7.40332031 C85.6299642,6.9703776 84.0605469,6.71061198 82.8916016,6.62402344 L82.8916016,2.01318359 L154.197266,2.01318359 L154.197266,24.2231445 L149.32666,24.2231445 C148.460775,20.9327799 146.588298,17.4367676 143.709229,13.7351074 C140.83016,10.0334473 138.091797,8.0094401 135.494141,7.66308594 C134.152018,7.48990885 132.55013,7.36002604 130.688477,7.2734375 C128.826823,7.18684896 126.705404,7.14355469 124.324219,7.14355469 L109.842285,7.14355469 L109.842285,43.7705078 L120.23291,43.7705078 C123.566569,43.7705078 126.001872,43.4566243 127.538818,42.8288574 C129.075765,42.2010905 130.428711,41.1512044 131.597656,39.6791992 C132.55013,38.4236654 133.361898,36.7460124 134.032959,34.6462402 C134.70402,32.5464681 135.147786,30.5657552 135.364258,28.7041016 L140.234863,28.7041016 L140.234863,64.746582 L135.364258,64.746582 C135.191081,62.668457 134.725667,60.4712728 133.968018,58.1550293 C133.210368,55.8387858 132.420247,54.1611328 131.597656,53.1220703 C130.255534,51.4335938 128.729411,50.3295898 127.019287,49.8100586 C125.309163,49.2905273 123.047038,49.0307617 120.23291,49.0307617 L109.842285,49.0307617 L109.842285,76.6958008 C109.842285,79.4666341 110.037109,81.6529948 110.426758,83.2548828 C110.816406,84.8567708 111.574056,86.0690104 112.699707,86.8916016 C113.825358,87.7141927 115.362305,88.2445475 117.310547,88.482666 C119.258789,88.7207845 122.029622,88.8398437 125.623047,88.8398437 C127.051758,88.8398437 128.935059,88.8398437 131.272949,88.8398437 C133.61084,88.8398437 135.580729,88.7532552 137.182617,88.5800781 C138.827799,88.406901 140.5271,88.0930176 142.280518,87.6384277 C144.033936,87.1838379 145.278646,86.5668945 146.014648,85.7875977 C148.006185,83.7094727 150.095133,80.5598145 152.281494,76.338623 C154.467855,72.1174316 155.864095,69.0110677 156.470215,67.0195312 L161.145996,67.0195312 Z" id="Path"></path>
                <path d="M261.117188,6.62402344 C259.904948,6.66731771 258.043294,7.01367188 255.532227,7.66308594 C253.021159,8.3125 251.224447,8.9835612 250.14209,9.67626953 C248.583496,10.7586263 247.53361,12.8367513 246.992432,15.9106445 C246.451253,18.9845378 246.180664,22.8810221 246.180664,27.6000977 L246.180664,95.0742188 L240.530762,95.0742188 L184.681152,19.6772461 L184.681152,67.2143555 C184.681152,72.5395508 185.016683,76.6308594 185.687744,79.4882813 C186.358805,82.3457031 187.387044,84.3805339 188.772461,85.5927734 C189.768229,86.5452474 191.824707,87.4327799 194.941895,88.2553711 C198.059082,89.0779622 200.11556,89.5109049 201.111328,89.5541992 L201.111328,94.1650391 L163.31543,94.1650391 L163.31543,89.5541992 C164.484375,89.4676107 166.454264,89.0454915 169.225098,88.2878418 C171.995931,87.5301921 173.727702,86.8483073 174.42041,86.2421875 C175.93571,85.0299479 176.974772,83.1791178 177.537598,80.6896973 C178.100423,78.2002767 178.381836,73.9466146 178.381836,67.9287109 L178.381836,22.534668 C178.381836,20.5431315 178.035482,18.5515951 177.342773,16.5600586 C176.650065,14.5685221 175.719238,13.0315755 174.550293,11.9492187 C172.991699,10.5205078 170.881104,9.29744466 168.218506,8.2800293 C165.555908,7.26261393 163.402018,6.71061198 161.756836,6.62402344 L161.756836,2.01318359 L188.058105,2.01318359 L239.881348,72.2797852 L239.881348,28.4443359 C239.881348,23.0758464 239.534993,18.9520671 238.842285,16.072998 C238.149577,13.193929 237.153809,11.2781576 235.85498,10.3256836 C234.642741,9.50309245 232.662028,8.70214844 229.912842,7.92285156 C227.163656,7.14355469 225.074707,6.71061198 223.645996,6.62402344 L223.645996,2.01318359 L261.117188,2.01318359 L261.117188,6.62402344 Z" id="Path"></path>
                <path d="M352.84082,48.6411133 C352.84082,56.4773763 351.368815,63.2745768 348.424805,69.0327148 C345.480794,74.7908529 341.649251,79.5099284 336.930176,83.1899414 C332.167806,86.8699544 326.820964,89.6191406 320.889648,91.4375 C314.958333,93.2558594 308.832194,94.1650391 302.51123,94.1650391 L264.325684,94.1650391 L264.325684,89.5541992 C265.581217,89.5541992 267.215576,89.43514 269.22876,89.1970215 C271.241943,88.958903 272.573242,88.6883138 273.222656,88.3852539 C274.521484,87.8224284 275.463135,86.9890137 276.047607,85.8850098 C276.63208,84.7810059 276.924316,83.449707 276.924316,81.8911133 L276.924316,15.3911133 C276.924316,13.9191081 276.675374,12.5986328 276.17749,11.4296875 C275.679606,10.2607422 274.694661,9.32991536 273.222656,8.63720703 C271.880534,7.98779297 270.430176,7.51155599 268.871582,7.20849609 C267.312988,6.9054362 265.970866,6.71061198 264.845215,6.62402344 L264.845215,2.01318359 L305.108887,2.01318359 C310.650553,2.01318359 316.105632,2.86824544 321.474121,4.57836914 C326.842611,6.28849284 331.518392,8.59391276 335.501465,11.4946289 C340.913249,15.347819 345.156087,20.3916016 348.22998,26.6259766 C351.303874,32.8603516 352.84082,40.1987305 352.84082,48.6411133 Z M336.930176,48.5761719 C336.930176,42.3850911 336.107585,36.7893066 334.462402,31.7888184 C332.81722,26.7883301 330.414388,22.4264323 327.253906,18.703125 C324.266602,15.1529948 320.597412,12.3605143 316.246338,10.3256836 C311.895264,8.29085286 307.057129,7.2734375 301.731934,7.2734375 C299.956868,7.2734375 297.954508,7.3059082 295.724854,7.37084961 C293.495199,7.43579102 291.839193,7.48990885 290.756836,7.53320312 L290.756836,78.3842773 C290.756836,82.324056 291.904134,85.0515951 294.19873,86.5668945 C296.493327,88.082194 300.02181,88.8398438 304.78418,88.8398438 C310.282552,88.8398438 315.088216,87.8657227 319.201172,85.9174805 C323.314128,83.9692383 326.647786,81.2633464 329.202148,77.7998047 C331.886393,74.1630859 333.845459,69.9527181 335.079346,65.1687012 C336.313232,60.3846842 336.930176,54.8538411 336.930176,48.5761719 Z" id="Shape"></path>
                <path d="M435.623047,94.1650391 L397.242676,94.1650391 L397.242676,89.5541992 C400.619629,89.3377279 403.422933,88.9047852 405.652588,88.2553711 C407.882243,87.605957 408.99707,86.805013 408.99707,85.8525391 C408.99707,85.4628906 408.953776,84.9866536 408.867188,84.4238281 C408.780599,83.8610026 408.650716,83.3631185 408.477539,82.9301758 L400.814453,62.2788086 L368.538574,62.2788086 C367.326335,65.3094076 366.34139,67.9503581 365.58374,70.2016602 C364.82609,72.4529622 364.144206,74.5310872 363.538086,76.4360352 C362.97526,78.2976888 362.585612,79.8129883 362.369141,80.9819336 C362.152669,82.1508789 362.044434,83.1033529 362.044434,83.8393555 C362.044434,85.5711263 363.408203,86.9132487 366.135742,87.8657227 C368.863281,88.8181966 371.937174,89.3810221 375.357422,89.5541992 L375.357422,94.1650391 L340.678711,94.1650391 L340.678711,89.5541992 C341.804362,89.4676107 343.211426,89.2186686 344.899902,88.807373 C346.588379,88.3960775 347.973796,87.8440755 349.056152,87.1513672 C350.787923,85.9824219 352.130046,84.7593587 353.08252,83.4821777 C354.034993,82.2049967 354.96582,80.4407552 355.875,78.1894531 C360.507487,66.6298828 365.616211,53.6416016 371.201172,39.2246094 C376.786133,24.8076172 381.764974,11.9708659 386.137695,0.714355469 L391.333008,0.714355469 L422.050293,80.2026367 C422.699707,81.8911133 423.43571,83.2548828 424.258301,84.2939453 C425.080892,85.3330078 426.22819,86.3504232 427.700195,87.3461914 C428.695964,87.9523112 429.994792,88.4610189 431.59668,88.8723145 C433.198568,89.28361 434.54069,89.5109049 435.623047,89.5541992 L435.623047,94.1650391 Z M398.476562,56.4990234 L384.51416,20.78125 L370.811523,56.4990234 L398.476562,56.4990234 Z" id="Shape"></path>
                <path d="M533.489746,6.62402344 C532.277507,6.66731771 530.415853,7.01367188 527.904785,7.66308594 C525.393717,8.3125 523.597005,8.9835612 522.514648,9.67626953 C520.956055,10.7586263 519.906169,12.8367513 519.36499,15.9106445 C518.823812,18.9845378 518.553223,22.8810221 518.553223,27.6000977 L518.553223,95.0742188 L512.90332,95.0742188 L457.053711,19.6772461 L457.053711,67.2143555 C457.053711,72.5395508 457.389242,76.6308594 458.060303,79.4882813 C458.731364,82.3457031 459.759603,84.3805339 461.14502,85.5927734 C462.140788,86.5452474 464.197266,87.4327799 467.314453,88.2553711 C470.431641,89.0779622 472.488118,89.5109049 473.483887,89.5541992 L473.483887,94.1650391 L435.687988,94.1650391 L435.687988,89.5541992 C436.856934,89.4676107 438.826823,89.0454915 441.597656,88.2878418 C444.36849,87.5301921 446.10026,86.8483073 446.792969,86.2421875 C448.308268,85.0299479 449.347331,83.1791178 449.910156,80.6896973 C450.472982,78.2002767 450.754395,73.9466146 450.754395,67.9287109 L450.754395,22.534668 C450.754395,20.5431315 450.40804,18.5515951 449.715332,16.5600586 C449.022624,14.5685221 448.091797,13.0315755 446.922852,11.9492187 C445.364258,10.5205078 443.253662,9.29744466 440.591064,8.2800293 C437.928467,7.26261393 435.774577,6.71061198 434.129395,6.62402344 L434.129395,2.01318359 L460.430664,2.01318359 L512.253906,72.2797852 L512.253906,28.4443359 C512.253906,23.0758464 511.907552,18.9520671 511.214844,16.072998 C510.522135,13.193929 509.526367,11.2781576 508.227539,10.3256836 C507.015299,9.50309245 505.034587,8.70214844 502.2854,7.92285156 C499.536214,7.14355469 497.447266,6.71061198 496.018555,6.62402344 L496.018555,2.01318359 L533.489746,2.01318359 L533.489746,6.62402344 Z" id="Path"></path>
                <path d="M577.546387,96.3081055 C572.048014,96.3081055 566.776937,95.2257487 561.733154,93.0610352 C556.689372,90.8963216 552.219238,87.7791341 548.322754,83.7094727 C544.469564,79.6398112 541.395671,74.6717936 539.101074,68.8054199 C536.806478,62.9390462 535.65918,56.3258464 535.65918,48.9658203 C535.65918,41.6057943 536.784831,34.927653 539.036133,28.9313965 C541.287435,22.93514 544.404622,17.7722982 548.387695,13.4428711 C552.327474,9.15673828 556.981608,5.84472656 562.350098,3.50683594 C567.718587,1.16894531 573.455078,0 579.55957,0 C584.105469,0 588.218424,0.562825521 591.898438,1.68847656 C595.578451,2.8141276 599.085286,4.39436849 602.418945,6.42919922 L605.081543,2.01318359 L610.276855,2.01318359 L610.861328,34.8735352 L605.536133,34.8735352 C604.843424,31.6697591 603.804362,28.1953939 602.418945,24.4504395 C601.033529,20.705485 599.409993,17.5341797 597.54834,14.9365234 C595.470215,11.992513 593.002441,9.6870931 590.14502,8.02026367 C587.287598,6.35343424 584.01888,5.52001953 580.338867,5.52001953 C576.139323,5.52001953 572.232015,6.45084635 568.616943,8.3125 C565.001872,10.1741536 561.873861,12.9233398 559.23291,16.5600586 C556.721842,20.0668945 554.751953,24.5262044 553.323242,29.9379883 C551.894531,35.3497721 551.180176,41.3893229 551.180176,48.0566406 C551.180176,53.9446615 551.927002,59.3456217 553.420654,64.2595215 C554.914307,69.1734212 557.046549,73.4920247 559.817383,77.215332 C562.588216,80.8953451 565.867757,83.7744141 569.656006,85.8525391 C573.444255,87.9306641 577.67627,88.9697266 582.352051,88.9697266 C585.858887,88.9697266 589.08431,88.4177246 592.02832,87.3137207 C594.972331,86.2097168 597.526693,84.7485352 599.691406,82.9301758 C601.85612,81.0252279 603.761068,78.8605143 605.40625,76.4360352 C607.051432,74.011556 608.393555,71.3706055 609.432617,68.5131836 L614.303223,70.8510742 C610.579915,79.9861654 605.644368,86.5127767 599.496582,90.4309082 C593.348796,94.3490397 586.032064,96.3081055 577.546387,96.3081055 Z" id="Path"></path>
                <path d="M695.831055,67.0195312 L694.077637,94.1650391 L617.57666,94.1650391 L617.57666,89.5541992 C618.875488,89.4676107 620.607259,89.28361 622.771973,89.0021973 C624.936686,88.7207845 626.34375,88.4285482 626.993164,88.1254883 C628.378581,87.4760742 629.341878,86.6318359 629.883057,85.5927734 C630.424235,84.5537109 630.694824,83.2332357 630.694824,81.6313477 L630.694824,15.3911133 C630.694824,13.9624023 630.456706,12.6960449 629.980469,11.592041 C629.504232,10.4880371 628.508464,9.58968099 626.993164,8.89697266 C625.824219,8.33414714 624.254801,7.83626302 622.284912,7.40332031 C620.315023,6.9703776 618.745605,6.71061198 617.57666,6.62402344 L617.57666,2.01318359 L688.882324,2.01318359 L688.882324,24.2231445 L684.011719,24.2231445 C683.145833,20.9327799 681.273356,17.4367676 678.394287,13.7351074 C675.515218,10.0334473 672.776855,8.0094401 670.179199,7.66308594 C668.837077,7.48990885 667.235189,7.36002604 665.373535,7.2734375 C663.511882,7.18684896 661.390462,7.14355469 659.009277,7.14355469 L644.527344,7.14355469 L644.527344,43.7705078 L654.917969,43.7705078 C658.251628,43.7705078 660.68693,43.4566243 662.223877,42.8288574 C663.760824,42.2010905 665.11377,41.1512044 666.282715,39.6791992 C667.235189,38.4236654 668.046956,36.7460124 668.718018,34.6462402 C669.389079,32.5464681 669.832845,30.5657552 670.049316,28.7041016 L674.919922,28.7041016 L674.919922,64.746582 L670.049316,64.746582 C669.876139,62.668457 669.410726,60.4712728 668.653076,58.1550293 C667.895426,55.8387858 667.105306,54.1611328 666.282715,53.1220703 C664.940592,51.4335938 663.414469,50.3295898 661.704346,49.8100586 C659.994222,49.2905273 657.732096,49.0307617 654.917969,49.0307617 L644.527344,49.0307617 L644.527344,76.6958008 C644.527344,79.4666341 644.722168,81.6529948 645.111816,83.2548828 C645.501465,84.8567708 646.259115,86.0690104 647.384766,86.8916016 C648.510417,87.7141927 650.047363,88.2445475 651.995605,88.482666 C653.943848,88.7207845 656.714681,88.8398437 660.308105,88.8398437 C661.736816,88.8398437 663.620117,88.8398437 665.958008,88.8398437 C668.295898,88.8398437 670.265788,88.7532552 671.867676,88.5800781 C673.512858,88.406901 675.212158,88.0930176 676.965576,87.6384277 C678.718994,87.1838379 679.963704,86.5668945 680.699707,85.7875977 C682.691243,83.7094727 684.780192,80.5598145 686.966553,76.338623 C689.152913,72.1174316 690.549154,69.0110677 691.155273,67.0195312 L695.831055,67.0195312 Z" id="Path"></path>
            </g>
        </g>
        <g id="Help-Centre" transform="translate(1238.472, 34.4102)" fill="#FF7070" fill-rule="nonzero">
            <path d="M133.415039,140.589844 L79.921875,140.589844 L79.921875,134.141602 C81.375,134.020508 83.4790039,133.838867 86.2338867,133.59668 C88.9887695,133.354492 90.8808594,132.991211 91.9101563,132.506836 C93.7265625,131.780273 95.0585938,130.675293 95.90625,129.191895 C96.7539063,127.708496 97.1777344,125.786133 97.1777344,123.424805 L97.1777344,77.5605469 L36.6005859,77.5605469 L36.6005859,122.425781 C36.6005859,124.544922 36.9487305,126.331055 37.6450195,127.78418 C38.3413086,129.237305 39.71875,130.508789 41.7773438,131.598633 C42.8066406,132.143555 44.6381836,132.688477 47.2719727,133.233398 C49.9057617,133.77832 51.9794922,134.081055 53.4931641,134.141602 L53.4931641,140.589844 L2.27373675e-13,140.589844 L2.27373675e-13,134.141602 C1.453125,134.020508 3.55712891,133.838867 6.31201172,133.59668 C9.06689453,133.354492 10.9589844,132.991211 11.9882813,132.506836 C13.8046875,131.780273 15.1367188,130.675293 15.984375,129.191895 C16.8320313,127.708496 17.2558594,125.786133 17.2558594,123.424805 L17.2558594,30.4248047 C17.2558594,28.4873047 16.8623047,26.7163086 16.0751953,25.1118164 C15.2880859,23.5073242 13.9257813,22.2509766 11.9882813,21.3427734 C10.3535156,20.5556641 8.37060547,19.859375 6.03955078,19.2539062 C3.70849609,18.6484375 1.6953125,18.2851562 2.27373675e-13,18.1640625 L2.27373675e-13,11.7158203 L53.4931641,11.7158203 L53.4931641,18.1640625 C51.7978516,18.2246094 49.7241211,18.4970703 47.2719727,18.9814453 C44.8198242,19.4658203 42.9882813,19.9199219 41.7773438,20.34375 C39.71875,21.0703125 38.3413086,22.28125 37.6450195,23.9765625 C36.9487305,25.671875 36.6005859,27.5185547 36.6005859,29.5166016 L36.6005859,69.4775391 L97.1777344,69.4775391 L97.1777344,30.4248047 C97.1777344,28.4873047 96.7841797,26.7163086 95.9970703,25.1118164 C95.2099609,23.5073242 93.8476563,22.2509766 91.9101563,21.3427734 C90.2753906,20.5556641 88.2924805,19.859375 85.9614258,19.2539062 C83.6303711,18.6484375 81.6171875,18.2851562 79.921875,18.1640625 L79.921875,11.7158203 L133.415039,11.7158203 L133.415039,18.1640625 C131.719727,18.2246094 129.645996,18.4970703 127.193848,18.9814453 C124.741699,19.4658203 122.910156,19.9199219 121.699219,20.34375 C119.640625,21.0703125 118.263184,22.28125 117.566895,23.9765625 C116.870605,25.671875 116.522461,27.5185547 116.522461,29.5166016 L116.522461,122.425781 C116.522461,124.544922 116.870605,126.331055 117.566895,127.78418 C118.263184,129.237305 119.640625,130.508789 121.699219,131.598633 C122.728516,132.143555 124.560059,132.688477 127.193848,133.233398 C129.827637,133.77832 131.901367,134.081055 133.415039,134.141602 L133.415039,140.589844 Z" id="Path"></path>
            <path d="M223.182382,119.519531 C219.428476,126.664063 214.403085,132.355469 208.10621,136.59375 C201.809335,140.832031 194.573984,142.951172 186.400156,142.951172 C179.195078,142.951172 172.883066,141.679688 167.464121,139.136719 C162.045175,136.59375 157.579843,133.142578 154.068124,128.783203 C150.556406,124.423828 147.937753,119.337891 146.212167,113.525391 C144.486581,107.712891 143.623788,101.567383 143.623788,95.0888672 C143.623788,89.2763672 144.547128,83.5698242 146.393808,77.9692383 C148.240488,72.3686523 150.94996,67.328125 154.522226,62.8476563 C157.973398,58.5488281 162.257089,55.0825195 167.3733,52.4487305 C172.489511,49.8149414 178.226328,48.4980469 184.583749,48.4980469 C191.122812,48.4980469 196.723398,49.5273438 201.385507,51.5859375 C206.047617,53.6445312 209.831796,56.4599609 212.738046,60.0322266 C215.523203,63.4228516 217.596933,67.4189453 218.959238,72.0205078 C220.321542,76.6220703 221.002695,81.6171875 221.002695,87.0058594 L221.002695,93 L161.697031,93 C161.697031,98.8730469 162.257089,104.201172 163.377206,108.984375 C164.497324,113.767578 166.26832,117.975586 168.690195,121.608398 C171.051523,125.120117 174.139413,127.890137 177.953867,129.918457 C181.76832,131.946777 186.309335,132.960938 191.576913,132.960938 C196.965585,132.960938 201.612558,131.70459 205.517831,129.191895 C209.423105,126.679199 213.192148,122.15332 216.82496,115.614258 L223.182382,119.519531 Z M203.111093,85.3710938 C203.111093,81.9804687 202.823496,78.3476562 202.2483,74.4726562 C201.673105,70.5976562 200.749765,67.3583984 199.478281,64.7548828 C198.085703,61.9697266 196.178476,59.6992187 193.756601,57.9433594 C191.334726,56.1875 188.216562,55.3095703 184.402109,55.3095703 C178.044687,55.3095703 172.761972,57.9584961 168.553964,63.2563477 C164.345956,68.5541992 162.060312,75.9257812 161.697031,85.3710938 L203.111093,85.3710938 Z" id="Shape"></path>
            <path d="M269.900897,140.589844 L226.216327,140.589844 L226.216327,134.595703 C227.608905,134.474609 229.092304,134.338379 230.666522,134.187012 C232.240741,134.035645 233.542499,133.808594 234.571796,133.505859 C236.267108,132.960938 237.538593,132.007324 238.386249,130.64502 C239.233905,129.282715 239.657733,127.511719 239.657733,125.332031 L239.657733,21.6152344 C239.657733,19.4355469 239.188495,17.3920898 238.250018,15.4848633 C237.311542,13.5776367 236.085468,12.0791016 234.571796,10.9892578 C233.481952,10.2626953 231.483905,9.59667969 228.577655,8.99121094 C225.671405,8.38574219 223.34035,8.02246094 221.584491,7.90136719 L221.584491,2.08886719 L255.278827,0 L256.550311,1.36230469 L256.550311,124.242187 C256.550311,126.361328 256.943866,128.102051 257.730975,129.464355 C258.518085,130.82666 259.789569,131.871094 261.545429,132.597656 C262.87746,133.203125 264.194354,133.657227 265.496112,133.959961 C266.79787,134.262695 268.266132,134.474609 269.900897,134.595703 L269.900897,140.589844 Z" id="Path"></path>
            <path d="M357.397733,61.6669922 C360.969998,65.9052734 363.740018,70.824707 365.707791,76.425293 C367.675565,82.0258789 368.659451,88.4287109 368.659451,95.6337891 C368.659451,102.717773 367.478787,109.181152 365.117459,115.023926 C362.756131,120.866699 359.637967,125.84668 355.762967,129.963867 C351.706326,134.141602 347.195584,137.350586 342.23074,139.59082 C337.265897,141.831055 331.998319,142.951172 326.428006,142.951172 C321.039334,142.951172 316.619412,142.345703 313.16824,141.134766 C309.717069,139.923828 306.901639,138.500977 304.721951,136.866211 L303.995389,136.866211 L303.995389,163.749023 C303.995389,165.928711 304.419217,167.745117 305.266873,169.198242 C306.114529,170.651367 307.416287,171.710937 309.172147,172.376953 C310.625272,172.921875 312.699002,173.45166 315.393338,173.966309 C318.087674,174.480957 320.312772,174.768555 322.068631,174.829102 L322.068631,180.914062 L272.026639,180.914062 L272.026639,174.829102 C273.903592,174.708008 275.719998,174.556641 277.475858,174.375 C279.231717,174.193359 280.805936,173.890625 282.198514,173.466797 C284.01492,172.861328 285.286404,171.801758 286.012967,170.288086 C286.739529,168.774414 287.102811,166.988281 287.102811,164.929688 L287.102811,69.6591797 C287.102811,67.8427734 286.648709,66.0869141 285.740506,64.3916016 C284.832303,62.6962891 283.651639,61.3339844 282.198514,60.3046875 C281.10867,59.578125 279.594998,59.0180664 277.657498,58.6245117 C275.719998,58.230957 273.843045,57.9736328 272.026639,57.8525391 L272.026639,51.9492188 L302.542264,49.9511719 L303.813748,51.0410156 L303.813748,61.1220703 L304.540311,61.3037109 C307.688748,57.6708984 311.594022,54.6435547 316.256131,52.2216797 C320.91824,49.7998047 325.550076,48.5888672 330.151639,48.5888672 C335.721951,48.5888672 340.823026,49.7695312 345.454862,52.1308594 C350.086697,54.4921875 354.067654,57.6708984 357.397733,61.6669922 Z M342.594022,126.058594 C345.015897,122.304687 346.802029,117.945312 347.95242,112.980469 C349.102811,108.015625 349.678006,102.475586 349.678006,96.3603516 C349.678006,91.8798828 349.193631,87.3085937 348.224881,82.6464844 C347.256131,77.984375 345.742459,73.9277344 343.683865,70.4765625 C341.625272,66.9648438 338.930936,64.1191406 335.600858,61.9394531 C332.270779,59.7597656 328.274686,58.6699219 323.612576,58.6699219 C319.132108,58.6699219 315.317654,59.6538086 312.169217,61.621582 C309.020779,63.5893555 306.29617,65.9355469 303.995389,68.6601562 L303.995389,121.608398 C304.540311,123.243164 305.433377,124.938477 306.674588,126.694336 C307.915799,128.450195 309.29324,129.963867 310.806912,131.235352 C312.683865,132.749023 314.712186,133.975098 316.891873,134.913574 C319.071561,135.852051 321.735623,136.321289 324.884061,136.321289 C328.274686,136.321289 331.544217,135.428223 334.692654,133.64209 C337.841092,131.855957 340.474881,129.328125 342.594022,126.058594 Z" id="Shape"></path>
            <path d="M474.629685,143.586914 C466.940231,143.586914 459.568649,142.073242 452.514938,139.045898 C445.461228,136.018555 439.209763,131.65918 433.760544,125.967773 C428.371872,120.276367 424.073044,113.328613 420.86406,105.124512 C417.655075,96.9204102 416.050583,87.671875 416.050583,77.3789063 C416.050583,67.0859375 417.624802,57.746582 420.773239,49.3608398 C423.921677,40.9750977 428.281052,33.7548828 433.851364,27.7001953 C439.36113,21.7060547 445.869919,17.0742187 453.377731,13.8046875 C460.885544,10.5351562 468.908005,8.90039062 477.445114,8.90039062 C483.802536,8.90039062 489.554489,9.6875 494.700974,11.2617188 C499.847458,12.8359375 504.751755,15.0458984 509.413864,17.8916016 L513.137497,11.7158203 L520.403122,11.7158203 L521.220505,57.6708984 L513.773239,57.6708984 C512.804489,53.1904297 511.351364,48.331543 509.413864,43.0942383 C507.476364,37.8569336 505.205856,33.421875 502.602341,29.7890625 C499.696091,25.671875 496.244919,22.4477539 492.248825,20.1166992 C488.252731,17.7856445 483.681442,16.6201172 478.534958,16.6201172 C472.661911,16.6201172 467.197556,17.921875 462.141892,20.5253906 C457.086228,23.1289062 452.711716,26.9736328 449.018356,32.0595703 C445.506638,36.9638672 442.751755,43.2001953 440.753708,50.7685547 C438.755661,58.3369141 437.756638,66.7832031 437.756638,76.1074219 C437.756638,84.3417969 438.801071,91.8950195 440.889938,98.7670898 C442.978806,105.63916 445.960739,111.678711 449.835739,116.885742 C453.710739,122.032227 458.297165,126.058594 463.595017,128.964844 C468.892868,131.871094 474.811325,133.324219 481.350388,133.324219 C486.254685,133.324219 490.765427,132.552246 494.882614,131.008301 C498.999802,129.464355 502.572067,127.420898 505.599411,124.87793 C508.626755,122.213867 511.290817,119.186523 513.591599,115.795898 C515.89238,112.405273 517.769333,108.711914 519.222458,104.71582 L526.033981,107.985352 C520.82695,120.760742 513.924606,129.888184 505.32695,135.367676 C496.729294,140.847168 486.496872,143.586914 474.629685,143.586914 Z" id="Path"></path>
            <path d="M608.898981,119.519531 C605.145075,126.664063 600.119684,132.355469 593.822809,136.59375 C587.525934,140.832031 580.290582,142.951172 572.116754,142.951172 C564.911676,142.951172 558.599664,141.679688 553.180719,139.136719 C547.761774,136.59375 543.296442,133.142578 539.784723,128.783203 C536.273004,124.423828 533.654352,119.337891 531.928766,113.525391 C530.20318,107.712891 529.340387,101.567383 529.340387,95.0888672 C529.340387,89.2763672 530.263727,83.5698242 532.110407,77.9692383 C533.957086,72.3686523 536.666559,67.328125 540.238825,62.8476563 C543.689996,58.5488281 547.973688,55.0825195 553.089899,52.4487305 C558.20611,49.8149414 563.942926,48.4980469 570.300348,48.4980469 C576.839411,48.4980469 582.439996,49.5273438 587.102106,51.5859375 C591.764215,53.6445312 595.548395,56.4599609 598.454645,60.0322266 C601.239801,63.4228516 603.313532,67.4189453 604.675836,72.0205078 C606.038141,76.6220703 606.719293,81.6171875 606.719293,87.0058594 L606.719293,93 L547.413629,93 C547.413629,98.8730469 547.973688,104.201172 549.093805,108.984375 C550.213922,113.767578 551.984918,117.975586 554.406793,121.608398 C556.768121,125.120117 559.856012,127.890137 563.670465,129.918457 C567.484918,131.946777 572.025934,132.960938 577.293512,132.960938 C582.682184,132.960938 587.329157,131.70459 591.23443,129.191895 C595.139704,126.679199 598.908746,122.15332 602.541559,115.614258 L608.898981,119.519531 Z M588.827692,85.3710938 C588.827692,81.9804687 588.540094,78.3476562 587.964899,74.4726562 C587.389704,70.5976562 586.466364,67.3583984 585.194879,64.7548828 C583.802301,61.9697266 581.895075,59.6992187 579.4732,57.9433594 C577.051325,56.1875 573.933161,55.3095703 570.118707,55.3095703 C563.761286,55.3095703 558.478571,57.9584961 554.270563,63.2563477 C550.062555,68.5541992 547.776911,75.9257812 547.413629,85.3710938 L588.827692,85.3710938 Z" id="Shape"></path>
            <path d="M712.561832,140.589844 L668.695621,140.589844 L668.695621,134.595703 C670.088199,134.474609 671.617008,134.353516 673.282047,134.232422 C674.947086,134.111328 676.324527,133.869141 677.414371,133.505859 C679.109683,132.960938 680.366031,132.007324 681.183414,130.64502 C682.000797,129.282715 682.409488,127.511719 682.409488,125.332031 L682.409488,79.2861328 C682.409488,72.9287109 680.910953,68.0244141 677.913883,64.5732422 C674.916812,61.1220703 671.268863,59.3964844 666.970035,59.3964844 C663.761051,59.3964844 660.824527,59.8959961 658.160465,60.8950195 C655.496402,61.894043 653.135074,63.1201172 651.07648,64.5732422 C649.078433,65.9658203 647.489078,67.4643555 646.308414,69.0688477 C645.12775,70.6733398 644.264957,71.9599609 643.720035,72.9287109 L643.720035,124.423828 C643.720035,126.482422 644.143863,128.177734 644.991519,129.509766 C645.839176,130.841797 647.11066,131.871094 648.805972,132.597656 C650.077457,133.203125 651.454898,133.657227 652.938297,133.959961 C654.421695,134.262695 655.950504,134.474609 657.524722,134.595703 L657.524722,140.589844 L613.658512,140.589844 L613.658512,134.595703 C615.05109,134.474609 616.489078,134.353516 617.972476,134.232422 C619.455875,134.111328 620.742496,133.869141 621.83234,133.505859 C623.527652,132.960938 624.784,132.007324 625.601383,130.64502 C626.418765,129.282715 626.827457,127.511719 626.827457,125.332031 L626.827457,70.0224609 C626.827457,67.9638672 626.388492,66.0717773 625.510562,64.3461914 C624.632633,62.6206055 623.406558,61.2128906 621.83234,60.1230469 C620.681949,59.3964844 619.319644,58.8666992 617.745426,58.5336914 C616.171207,58.2006836 614.475894,57.9736328 612.659488,57.8525391 L612.659488,51.9492188 L642.448551,49.9511719 L643.720035,51.2226562 L643.720035,63.8466797 L644.174137,63.8466797 C645.627262,62.3935547 647.443668,60.652832 649.623355,58.6245117 C651.803043,56.5961914 653.861637,54.9462891 655.799137,53.6748047 C658.039371,52.2216797 660.703433,51.0107422 663.791324,50.0419922 C666.879215,49.0732422 670.36066,48.5888672 674.23566,48.5888672 C682.833316,48.5888672 689.205875,51.2680664 693.353336,56.6264648 C697.500797,61.9848633 699.574527,69.1142578 699.574527,78.0146484 L699.574527,124.605469 C699.574527,126.724609 699.937808,128.435059 700.664371,129.736816 C701.390933,131.038574 702.632144,132.052734 704.388004,132.779297 C705.841129,133.384766 707.097476,133.808594 708.157047,134.050781 C709.216617,134.292969 710.684879,134.474609 712.561832,134.595703 L712.561832,140.589844 Z" id="Path"></path>
            <path d="M773.266675,136.68457 C769.331128,138.319336 765.607495,139.696777 762.095777,140.816895 C758.584058,141.937012 754.28523,142.49707 749.199292,142.49707 C741.69148,142.49707 736.408765,140.60498 733.351148,136.820801 C730.29353,133.036621 728.764722,127.693359 728.764722,120.791016 L728.764722,60.1230469 L712.598706,60.1230469 L712.598706,51.4042969 L729.128003,51.4042969 L729.128003,23.5224609 L745.6573,23.5224609 L745.6573,51.4042969 L771.359448,51.4042969 L771.359448,60.1230469 L745.838941,60.1230469 L745.838941,110.165039 C745.838941,113.918945 745.975171,117.052246 746.247632,119.564941 C746.520093,122.077637 747.170972,124.272461 748.200269,126.149414 C749.169019,127.905273 750.622144,129.237305 752.559644,130.145508 C754.497144,131.053711 757.100659,131.507813 760.370191,131.507813 C761.883862,131.507813 764.10896,131.371582 767.045484,131.099121 C769.982007,130.82666 772.055737,130.478516 773.266675,130.054687 L773.266675,136.68457 Z" id="Path"></path>
            <path d="M845.142417,62.5751953 C845.142417,65.6630859 844.385581,68.402832 842.871909,70.7944336 C841.358237,73.1860352 839.027182,74.3818359 835.878745,74.3818359 C832.48812,74.3818359 829.899741,73.5039063 828.113608,71.7480469 C826.327475,69.9921875 825.434409,68.0546875 825.434409,65.9355469 C825.434409,64.6035156 825.540366,63.3925781 825.75228,62.3027344 C825.964194,61.2128906 826.160971,60.1230469 826.342612,59.0332031 C823.496909,59.0332031 820.166831,60.1835937 816.352378,62.484375 C812.537924,64.7851563 809.298667,68.0546875 806.634604,72.2929687 L806.634604,124.423828 C806.634604,126.542969 807.043295,128.268555 807.860678,129.600586 C808.678061,130.932617 809.964682,131.931641 811.720542,132.597656 C813.234213,133.203125 815.18685,133.657227 817.578452,133.959961 C819.970053,134.262695 822.043784,134.474609 823.799643,134.595703 L823.799643,140.589844 L776.573081,140.589844 L776.573081,134.595703 C777.965659,134.474609 779.403647,134.353516 780.887045,134.232422 C782.370444,134.111328 783.657065,133.869141 784.746909,133.505859 C786.442221,132.960938 787.698569,132.007324 788.515952,130.64502 C789.333335,129.282715 789.742026,127.511719 789.742026,125.332031 L789.742026,70.0224609 C789.742026,68.1455078 789.303061,66.2988281 788.425131,64.4824219 C787.547202,62.6660156 786.321128,61.2128906 784.746909,60.1230469 C783.596518,59.3964844 782.234213,58.8666992 780.659995,58.5336914 C779.085776,58.2006836 777.390463,57.9736328 775.574057,57.8525391 L775.574057,51.9492188 L805.36312,49.9511719 L806.634604,51.2226562 L806.634604,63.8466797 L807.088706,63.8466797 C810.842612,58.9423828 815.020346,55.21875 819.621909,52.6757812 C824.223471,50.1328125 828.431479,48.8613281 832.245932,48.8613281 C836.060385,48.8613281 839.163413,50.1025391 841.555014,52.5849609 C843.946616,55.0673828 845.142417,58.3974609 845.142417,62.5751953 Z" id="Path"></path>
            <path d="M926.735932,119.519531 C922.982025,126.664063 917.956635,132.355469 911.65976,136.59375 C905.362885,140.832031 898.127533,142.951172 889.953705,142.951172 C882.748627,142.951172 876.436615,141.679688 871.01767,139.136719 C865.598725,136.59375 861.133393,133.142578 857.621674,128.783203 C854.109955,124.423828 851.491303,119.337891 849.765717,113.525391 C848.040131,107.712891 847.177338,101.567383 847.177338,95.0888672 C847.177338,89.2763672 848.100678,83.5698242 849.947357,77.9692383 C851.794037,72.3686523 854.50351,67.328125 858.075775,62.8476563 C861.526947,58.5488281 865.810639,55.0825195 870.92685,52.4487305 C876.043061,49.8149414 881.779877,48.4980469 888.137299,48.4980469 C894.676361,48.4980469 900.276947,49.5273438 904.939057,51.5859375 C909.601166,53.6445312 913.385346,56.4599609 916.291596,60.0322266 C919.076752,63.4228516 921.150482,67.4189453 922.512787,72.0205078 C923.875092,76.6220703 924.556244,81.6171875 924.556244,87.0058594 L924.556244,93 L865.25058,93 C865.25058,98.8730469 865.810639,104.201172 866.930756,108.984375 C868.050873,113.767578 869.821869,117.975586 872.243744,121.608398 C874.605072,125.120117 877.692963,127.890137 881.507416,129.918457 C885.321869,131.946777 889.862885,132.960938 895.130463,132.960938 C900.519135,132.960938 905.166107,131.70459 909.071381,129.191895 C912.976654,126.679199 916.745697,122.15332 920.37851,115.614258 L926.735932,119.519531 Z M906.664643,85.3710938 C906.664643,81.9804687 906.377045,78.3476562 905.80185,74.4726562 C905.226654,70.5976562 904.303314,67.3583984 903.03183,64.7548828 C901.639252,61.9697266 899.732025,59.6992187 897.31015,57.9433594 C894.888275,56.1875 891.770111,55.3095703 887.955658,55.3095703 C881.598236,55.3095703 876.315521,57.9584961 872.107514,63.2563477 C867.899506,68.5541992 865.613861,75.9257812 865.25058,85.3710938 L906.664643,85.3710938 Z" id="Shape"></path>
        </g>
    </g>
</svg>